<svg width="251" height="83" viewBox="0 0 251 83" fill="none" xmlns="http://www.w3.org/2000/svg">
<path d="M86.0039 66.0057C83.6186 69.3187 82.3898 71.9931 82.3054 74.0291C82.2331 76.065 83.0764 77.5709 84.8474 78.5347C86.6183 79.4984 89.0036 80.0526 92.0033 80.2092L91.425 82.5222C88.1964 82.3656 85.4015 82.2693 83.0644 82.2331C80.7152 82.197 78.5106 82.1729 76.4265 82.1729C74.6556 82.1729 73.1979 82.197 72.0413 82.2331C70.8848 82.2693 69.6922 82.3656 68.4634 82.5222L68.9212 80.2092C70.8487 79.6671 72.7642 78.5347 74.6917 76.7999C76.6192 75.0651 79.0407 72.1256 81.9561 67.9694L130.072 0.240944C131.072 0.313226 132.096 0.361414 133.132 0.361414C134.168 0.361414 135.108 0.325273 135.963 0.240944L140.577 72.8244C140.806 75.5952 141.517 77.4986 142.709 78.5347C143.902 79.5707 145.071 80.1369 146.227 80.2092L145.769 82.5102C143.842 82.3536 141.288 82.2572 138.095 82.2211C134.903 82.1849 131.879 82.1608 129.036 82.1608C125.578 82.1608 122.302 82.1849 119.23 82.2211C116.158 82.2572 113.652 82.3536 111.724 82.5102L112.182 80.1972C115.868 80.0406 118.507 79.3659 120.085 78.1733C121.663 76.9806 122.338 74.4266 122.109 70.4993L119.338 17.42L123.265 13.2638L86.0039 66.0057ZM96.7378 49.2724H130.433L129.506 51.5854H94.6536L96.7378 49.2724Z" fill="#118AB2"/>
<path d="M31.8162 0V35.7556C31.8162 39.8034 31.6837 42.6586 31.4187 44.297C31.1537 45.9354 30.3706 47.622 29.0695 49.3567C27.7684 51.0915 26.0578 52.3926 23.9254 53.2841C21.8051 54.1756 19.2994 54.6213 16.4081 54.6213C13.2156 54.6213 10.3966 54.0912 7.95105 53.0311C5.51755 51.9709 3.68639 50.5976 2.48169 48.8989C1.26494 47.2003 0.554164 45.4174 0.337317 43.526C0.108423 41.6466 0 37.6832 0 31.6476V0H13.9143V40.1167C13.9143 42.4538 14.0348 43.9476 14.2998 44.5982C14.5528 45.2487 15.0588 45.574 15.8419 45.574C16.7213 45.574 17.2875 45.2126 17.5405 44.5018C17.7935 43.791 17.926 42.0924 17.926 39.43V0H31.8162Z" fill="#073B4C"/>
<path d="M50.1518 9.64967L49.6218 15.4202C51.5613 11.2881 54.3683 9.10756 58.0426 8.86662V24.2989C55.5971 24.2989 53.8021 24.6241 52.6576 25.2867C51.5131 25.9493 50.8024 26.8649 50.5373 28.0455C50.2723 29.2261 50.1398 31.9367 50.1398 36.1893V53.4889H36.8037V9.64967H50.1518Z" fill="#073B4C"/>
<path d="M74.3784 -1.90735e-05V12.6614C75.4747 11.3844 76.7035 10.4327 78.0648 9.79423C79.4141 9.16778 80.8838 8.85456 82.474 8.85456C84.3052 8.85456 85.8833 9.14369 87.2326 9.7099C88.5698 10.2882 89.6059 11.0833 90.3046 12.1193C91.0033 13.1554 91.437 14.1673 91.5816 15.1552C91.7261 16.143 91.7984 18.2633 91.7984 21.504V41.2611C91.7984 44.4777 91.5816 46.875 91.1599 48.4532C90.7262 50.0313 89.7263 51.3927 88.1361 52.5492C86.5459 53.7057 84.6666 54.284 82.4861 54.284C80.9199 54.284 79.4622 53.9466 78.113 53.26C76.7637 52.5733 75.5229 51.5493 74.3904 50.1759L73.5351 53.4888H61.0303V-1.90735e-05H74.3784ZM78.4382 22.1063C78.4382 19.8415 78.2937 18.3597 78.0046 17.6609C77.7154 16.9622 77.1613 16.6249 76.318 16.6249C75.4988 16.6249 74.9687 16.9261 74.7278 17.5284C74.4868 18.1308 74.3663 19.6608 74.3663 22.1063V41.0081C74.3663 43.3693 74.4989 44.8752 74.7759 45.5378C75.053 46.2004 75.5951 46.5257 76.4143 46.5257C77.2456 46.5257 77.7998 46.1883 78.0527 45.5017C78.3057 44.815 78.4382 43.1766 78.4382 40.5744V22.1063Z" fill="#073B4C"/>
<path d="M157.479 9.64966L157.25 13.6854C158.214 12.0711 159.406 10.8664 160.804 10.0593C162.201 9.25211 163.816 8.85456 165.647 8.85456C167.936 8.85456 169.815 9.39667 171.261 10.4689C172.718 11.5531 173.646 12.9144 174.068 14.5528C174.489 16.1912 174.694 18.9259 174.694 22.7689V53.4889H161.346V23.1303C161.346 20.1185 161.25 18.2753 161.045 17.6128C160.852 16.9502 160.298 16.6249 159.394 16.6249C158.443 16.6249 157.852 17.0104 157.611 17.7694C157.37 18.5283 157.25 20.5643 157.25 23.8652V53.5009H143.902V9.64966H157.479Z" fill="#073B4C"/>
<path d="M166.346 57.7541C165.153 57.7541 163.972 58.248 162.816 59.2359C161.659 60.2237 160.611 61.5489 159.696 63.2114C158.78 64.8739 158.045 66.7412 157.491 68.8133C156.937 70.8854 156.672 73.0177 156.672 75.2223C156.672 76.8848 157.009 78.0895 157.684 78.8244C158.358 79.5593 159.25 79.9327 160.346 79.9327C161.382 79.9327 162.418 79.6315 163.49 79.0412C164.551 78.4509 165.635 77.3667 166.731 75.7885L167.695 76.162C167.044 77.198 166.225 78.1979 165.201 79.1737C164.189 80.1496 163.009 80.9447 161.671 81.547C160.334 82.1614 158.828 82.4626 157.154 82.4626C154.901 82.4626 153.046 81.8723 151.6 80.6917C150.154 79.5111 149.432 77.692 149.432 75.2103C149.432 73.2587 149.817 71.2227 150.588 69.0904C151.359 66.958 152.467 64.9582 153.901 63.0909C155.335 61.2237 157.069 59.7057 159.093 58.5492C161.117 57.3927 163.394 56.8024 165.912 56.8024C167.683 56.8024 169.104 57.2361 170.189 58.0914C171.273 58.9588 171.803 60.031 171.803 61.32C171.803 62.1633 171.598 62.9946 171.176 63.7897C170.755 64.5848 170.189 65.2474 169.466 65.7654C168.743 66.2834 167.924 66.5364 167.02 66.5364C166.249 66.5364 165.599 66.2955 165.069 65.8015C164.539 65.3196 164.273 64.645 164.273 63.8017C164.273 62.5127 164.719 61.4044 165.599 60.4767C166.478 59.5491 167.502 58.9468 168.671 58.6697C168.418 58.3565 168.092 58.1155 167.731 57.9589C167.358 57.8384 166.9 57.7541 166.346 57.7541Z" fill="#073B4C"/>
<path d="M187.127 57.7535C185.934 57.7535 184.753 58.2475 183.597 59.2353C182.44 60.2232 181.392 61.5483 180.477 63.2108C179.561 64.8733 178.826 66.7406 178.272 68.8127C177.718 70.8848 177.453 73.0171 177.453 75.2217C177.453 76.8842 177.79 78.0889 178.465 78.8238C179.14 79.5587 180.031 79.9321 181.127 79.9321C182.163 79.9321 183.199 79.631 184.272 79.0406C185.332 78.4503 186.416 77.3661 187.512 75.7879L188.476 76.1614C187.825 77.1975 187.006 78.1974 185.982 79.1732C184.97 80.149 183.79 80.9441 182.452 81.5464C181.115 82.1608 179.609 82.462 177.935 82.462C175.682 82.462 173.827 81.8717 172.381 80.6911C170.935 79.5105 170.213 77.6914 170.213 75.2097C170.213 73.2581 170.598 71.2221 171.369 69.0898C172.14 66.9575 173.249 64.9577 174.682 63.0904C176.116 61.2231 177.85 59.7051 179.874 58.5486C181.898 57.3921 184.175 56.8018 186.693 56.8018C188.464 56.8018 189.885 57.2355 190.97 58.0908C192.054 58.9582 192.584 60.0304 192.584 61.3195C192.584 62.1627 192.379 62.994 191.958 63.7891C191.536 64.5842 190.97 65.2468 190.247 65.7648C189.524 66.2828 188.705 66.5358 187.801 66.5358C187.03 66.5358 186.38 66.2949 185.85 65.8009C185.32 65.3191 185.055 64.6444 185.055 63.8011C185.055 62.5121 185.5 61.4038 186.38 60.4762C187.259 59.5485 188.283 58.9462 189.452 58.6691C189.199 58.3559 188.874 58.1149 188.512 57.9583C188.139 57.8379 187.669 57.7535 187.127 57.7535Z" fill="#073B4C"/>
<path d="M196.933 71.5956C198.258 71.0896 199.511 70.5234 200.704 69.897C201.896 69.2705 202.908 68.5838 203.752 67.8249C205.005 66.7286 206.016 65.4516 206.775 63.9819C207.534 62.5242 207.908 60.946 207.908 59.2474C207.908 58.6209 207.848 58.1993 207.715 57.9945C207.583 57.7897 207.39 57.6933 207.137 57.6933C206.269 57.6933 205.306 58.2234 204.234 59.2956C203.173 60.3677 202.161 61.7652 201.21 63.4879C200.258 65.2107 199.487 67.102 198.885 69.138C198.282 71.1739 197.993 73.1617 197.993 75.0651C197.993 76.824 198.343 78.0287 199.029 78.6672C199.716 79.3057 200.619 79.631 201.716 79.631C202.583 79.631 203.667 79.3539 204.956 78.7877C206.245 78.2215 207.522 77.2216 208.775 75.7759L209.546 76.1494C208.872 77.1854 207.98 78.1853 206.884 79.1611C205.788 80.1369 204.523 80.932 203.065 81.5344C201.619 82.1488 200.041 82.45 198.33 82.45C196.174 82.45 194.367 81.8958 192.921 80.7754C191.476 79.6671 190.741 78.0046 190.741 75.8121C190.741 74.1496 191.018 72.4389 191.584 70.68C192.15 68.9211 192.945 67.2225 193.982 65.5721C195.018 63.9216 196.258 62.4398 197.704 61.1026C199.15 59.7654 200.764 58.7173 202.535 57.9463C204.306 57.1753 206.185 56.7898 208.185 56.7898C209.607 56.7898 210.799 57.0909 211.763 57.7053C212.727 58.3197 213.209 59.2474 213.209 60.5123C213.209 61.7411 212.859 62.8856 212.173 63.9457C211.474 65.0179 210.558 65.9817 209.39 66.8611C208.233 67.7405 206.932 68.5236 205.498 69.2103C204.065 69.897 202.595 70.4993 201.101 71.0053C199.607 71.5113 198.198 71.8968 196.873 72.1859L196.933 71.5956Z" fill="#073B4C"/>
<path d="M215.257 81.1489C215.51 81.2693 215.787 81.3657 216.076 81.4139C216.365 81.4621 216.714 81.4862 217.136 81.4862C218.329 81.4862 219.304 81.1368 220.063 80.4261C220.822 79.7153 221.196 78.7274 221.196 77.4384C221.196 76.4023 220.967 75.3422 220.521 74.258C220.063 73.1737 219.389 71.9931 218.497 70.7041C217.75 69.5717 217.076 68.4754 216.437 67.4032C215.811 66.331 215.498 65.1143 215.498 63.7289C215.498 61.717 216.269 60.0665 217.823 58.7655C219.365 57.4644 221.521 56.8138 224.304 56.8138C225.497 56.8138 226.653 56.9584 227.761 57.2355C228.87 57.5126 229.797 58.0065 230.544 58.6932C231.291 59.3799 231.653 60.3918 231.653 61.7049C231.653 62.4639 231.412 63.2229 230.93 64.018C230.448 64.801 229.701 65.1986 228.713 65.1986C227.906 65.1986 227.267 64.9095 226.786 64.3312C226.304 63.7529 226.063 62.994 226.063 62.0423C226.063 61.199 226.219 60.44 226.521 59.7533C226.822 59.0787 227.171 58.5366 227.557 58.127C227.135 57.874 226.569 57.7535 225.87 57.7535C224.713 57.7535 223.798 58.1029 223.135 58.7896C222.473 59.4762 222.123 60.4641 222.099 61.7531C222.099 62.8253 222.388 63.8132 222.967 64.7408C223.545 65.6684 224.22 66.7406 224.991 67.9694C225.954 69.5114 226.677 70.8246 227.147 71.9208C227.617 73.0171 227.846 74.1375 227.846 75.2579C227.846 76.6071 227.484 77.8239 226.761 78.9081C226.039 79.9924 224.991 80.8597 223.617 81.4982C222.244 82.1367 220.63 82.462 218.762 82.462C217.413 82.462 216.124 82.2933 214.895 81.944C213.666 81.5946 212.678 81.0284 211.92 80.2212C211.161 79.4261 210.787 78.3419 210.787 76.9926C210.787 76.1132 211.016 75.3302 211.486 74.6435C211.956 73.9568 212.618 73.6074 213.498 73.6074C214.365 73.6074 215.04 73.9568 215.522 74.6676C216.003 75.3783 216.244 76.2457 216.244 77.2818C216.244 78.101 216.124 78.8358 215.883 79.4984C215.618 80.161 215.413 80.7152 215.257 81.1489Z" fill="#073B4C"/>
<path d="M233.954 81.1489C234.207 81.2693 234.484 81.3657 234.773 81.4139C235.062 81.4621 235.411 81.4862 235.833 81.4862C237.026 81.4862 238.001 81.1368 238.76 80.4261C239.519 79.7153 239.893 78.7274 239.893 77.4384C239.893 76.4023 239.664 75.3422 239.218 74.258C238.76 73.1737 238.086 71.9931 237.194 70.7041C236.447 69.5717 235.773 68.4754 235.134 67.4032C234.508 66.331 234.195 65.1143 234.195 63.7289C234.195 61.717 234.966 60.0665 236.52 58.7655C238.062 57.4644 240.218 56.8138 243.001 56.8138C244.194 56.8138 245.35 56.9584 246.458 57.2355C247.567 57.5126 248.494 58.0065 249.241 58.6932C249.988 59.3799 250.35 60.3918 250.35 61.7049C250.35 62.4639 250.109 63.2229 249.627 64.018C249.145 64.801 248.398 65.1986 247.41 65.1986C246.603 65.1986 245.964 64.9095 245.483 64.3312C245.001 63.7529 244.76 62.994 244.76 62.0423C244.76 61.199 244.916 60.44 245.218 59.7533C245.519 59.0787 245.868 58.5366 246.254 58.127C245.832 57.874 245.266 57.7535 244.567 57.7535C243.41 57.7535 242.495 58.1029 241.832 58.7896C241.17 59.4762 240.82 60.4641 240.796 61.7531C240.796 62.8253 241.085 63.8132 241.664 64.7408C242.242 65.6684 242.917 66.7406 243.688 67.9694C244.651 69.5114 245.374 70.8246 245.844 71.9208C246.314 73.0171 246.543 74.1375 246.543 75.2579C246.543 76.6071 246.181 77.8239 245.459 78.9081C244.736 79.9924 243.688 80.8597 242.314 81.4982C240.941 82.1367 239.327 82.462 237.459 82.462C236.11 82.462 234.821 82.2933 233.592 81.944C232.363 81.5946 231.376 81.0284 230.617 80.2212C229.858 79.4261 229.484 78.3419 229.484 76.9926C229.484 76.1132 229.713 75.3302 230.183 74.6435C230.653 73.9568 231.315 73.6074 232.195 73.6074C233.062 73.6074 233.737 73.9568 234.219 74.6676C234.7 75.3783 234.941 76.2457 234.941 77.2818C234.941 78.101 234.821 78.8358 234.58 79.4984C234.315 80.161 234.11 80.7152 233.954 81.1489Z" fill="#073B4C"/>
</svg>
