<svg width="55" height="81" viewBox="0 0 55 81" fill="none" xmlns="http://www.w3.org/2000/svg">
<g clip-path="url(#clip0)">
<path d="M27.0513 80.5C25.0899 77.6396 23.2102 74.9426 21.3305 72.164C16.1 64.3183 11.1965 56.3909 6.86502 47.9731C4.24979 42.8244 1.71628 37.6756 0.572122 31.9548C-1.3893 21.8208 1.55283 13.1579 9.39852 6.53807C22.3112 -4.33147 41.6802 -1.30761 50.5884 12.9944C55.0016 20.1046 55.5736 27.7051 53.0401 35.6325C50.7518 42.8244 47.0742 49.3624 43.3148 55.8188C38.4112 64.1548 33.099 72.164 27.4599 79.9279C27.3782 80.0914 27.2965 80.2548 27.0513 80.5Z" fill="#FFA500"/>
<path d="M27.5417 48.0548C31.3828 47.9731 34.897 46.9107 38.166 44.7858C47.2376 38.9015 50.098 26.5609 44.7858 16.8355C39.6371 7.43707 27.9503 3.67767 18.6335 8.4995C9.72542 13.1579 5.47567 23.2102 8.25435 33.2624C10.6244 41.9254 18.797 48.1366 27.5417 48.0548Z" fill="white"/>
<path d="M8 19.6362C8.04774 19.1063 8.03342 18.445 8.17426 17.8196C8.51322 16.3158 9.95262 15.4755 11.4994 15.8073C12.946 16.1177 14.4093 16.2513 15.8893 16.1964C17.2523 16.1463 18.5962 15.9506 19.9163 15.5949C21.5466 15.1557 23.0887 14.5088 24.5329 13.6303C24.9983 13.3463 25.4662 13.0765 26.0272 13.0168C26.7886 12.9357 27.457 13.1505 28.0633 13.6017C28.6482 14.0361 28.894 14.683 29.1566 15.3204C29.72 16.6929 30.1138 18.1156 30.3549 19.5765C30.5244 20.5958 30.6223 21.6246 30.6008 22.6606C30.596 22.854 30.6724 22.9351 30.8323 23.0258C31.0973 23.1738 31.3551 23.3457 31.5843 23.5462C32.7754 24.5965 34.0668 25.4988 35.4871 26.2197C36.9074 26.9406 38.3922 27.4801 39.9557 27.7737C40.8103 27.9337 41.6792 28.0291 42.5457 28.1031C43.1759 28.158 43.8132 28.1318 44.4482 28.1342C46.0165 28.1366 47.3079 29.4447 47.1981 31.0058C47.1384 31.8437 46.9809 32.6815 46.8066 33.5051C46.4175 35.3431 45.7468 37.0809 44.8397 38.7256C44.2405 39.8141 43.5626 40.8501 42.751 41.7906C42.2903 42.3229 41.8344 42.8624 41.3307 43.3518C40.0059 44.6408 38.5521 45.7651 36.8979 46.6053C33.7899 48.1832 30.7989 47.9397 27.975 45.9083C26.6979 44.9917 25.8266 43.7432 25.2585 42.2776C24.5543 40.4562 24.1247 38.5752 23.9814 36.6298C23.9671 36.4436 23.9218 36.4006 23.7403 36.4722C22.6041 36.9281 21.4225 37.1334 20.1979 37.0594C18.4315 36.9544 16.8608 36.3409 15.4763 35.2381C14.6647 34.5936 13.9176 33.8822 13.2158 33.1232C12.3827 32.2208 11.6498 31.2398 11.0029 30.1918C10.2749 29.015 9.67572 27.7785 9.20547 26.4775C8.63019 24.883 8.2578 23.2407 8.11697 21.5506C8.06923 20.9515 8.04297 20.3523 8 19.6362ZM25.7049 35.1068C25.7288 35.6153 25.7359 36.1261 25.7813 36.6321C25.9293 38.3222 26.3065 39.9597 26.9008 41.5495C27.3568 42.7741 28.1015 43.7862 29.1495 44.5477C30.7297 45.6959 32.4961 46.0539 34.4106 45.6481C35.1911 45.4834 35.8977 45.1373 36.5804 44.7363C37.7668 44.0368 38.8648 43.2157 39.865 42.268C40.6766 41.4994 41.4047 40.6567 42.0635 39.752C42.7963 38.7447 43.4146 37.6753 43.923 36.5414C44.4554 35.3574 44.8635 34.1281 45.107 32.851C45.2288 32.2137 45.3362 31.5716 45.3887 30.927C45.4388 30.3064 44.9948 29.9149 44.3694 29.9364C43.0183 29.9794 41.6768 29.9054 40.3448 29.6762C39.1322 29.4685 37.9482 29.1534 36.7929 28.7286C35.3463 28.1962 33.9666 27.5302 32.7038 26.6518C31.8707 26.0717 31.0854 25.4225 30.2929 24.7875C29.8178 24.408 29.1972 24.4724 28.8558 24.9713C27.9702 26.2675 27.2637 27.6568 26.7457 29.1344C26.063 31.0655 25.7192 33.0563 25.7049 35.1068ZM9.81895 19.7627C9.84282 20.2186 9.86192 20.6793 9.89056 21.1401C9.95979 22.2071 10.1412 23.2574 10.4109 24.2934C10.8597 26.0168 11.5448 27.64 12.4734 29.1606C13.02 30.0558 13.6335 30.9008 14.3353 31.6766C14.8342 32.2304 15.3689 32.7555 15.9179 33.2592C16.5386 33.8297 17.1998 34.3525 17.9851 34.6938C19.9568 35.5484 21.8904 35.472 23.7809 34.4456C23.8525 34.4074 23.917 34.2904 23.9265 34.2045C24.0053 33.5337 24.0268 32.851 24.1533 32.1898C24.2369 31.7577 24.0722 31.5214 23.7642 31.3042C23.7236 31.2756 23.6878 31.2445 23.6496 31.2135C22.6566 30.4258 21.0143 30.304 19.9306 30.927C19.1572 31.371 18.6081 31.9965 18.2954 32.8343C18.114 33.3141 17.6271 33.5576 17.1902 33.4048C16.6531 33.2186 16.4168 32.7173 16.6197 32.1803C16.9682 31.2612 17.5173 30.4878 18.2931 29.8743C19.1858 29.1678 20.1979 28.7835 21.3318 28.7262C22.4824 28.6689 23.5374 28.9816 24.5018 29.6094C24.626 29.6905 24.6856 29.6977 24.7334 29.5306C25.2752 27.6591 26.0988 25.919 27.1467 24.2791C27.5191 23.6966 27.9511 23.1882 28.6195 22.9423C28.7818 22.8826 28.8367 22.7967 28.8248 22.6344C28.7723 21.9326 28.7484 21.2284 28.6697 20.529C28.4667 18.7363 27.9702 17.02 27.235 15.3753C26.9915 14.8286 26.3948 14.6377 25.8672 14.9289C25.2943 15.2464 24.731 15.5782 24.1533 15.8861C23.1722 16.4089 22.141 16.8171 21.0764 17.1202C20.112 17.3947 19.1261 17.6072 18.1403 17.7791C16.6006 18.0464 15.0419 18.0679 13.4879 17.9127C12.6643 17.8292 11.8456 17.6764 11.0268 17.5427C10.4324 17.4449 9.94546 17.7958 9.89533 18.3949C9.85475 18.8509 9.84282 19.3068 9.81895 19.7627Z" fill="#264653"/>
<path d="M25.7048 35.1068C25.7216 33.0586 26.0653 31.0654 26.7408 29.1367C27.2588 27.6567 27.9654 26.2674 28.851 24.9736C29.1924 24.4747 29.813 24.4103 30.288 24.7898C31.0805 25.4248 31.8659 26.0741 32.699 26.6541C33.9617 27.5326 35.3415 28.1986 36.788 28.7309C37.9434 29.1558 39.1274 29.4709 40.34 29.6786C41.672 29.9053 43.0159 29.9817 44.3646 29.9387C44.99 29.9196 45.434 30.3111 45.3839 30.9294C45.3314 31.5739 45.2239 32.216 45.1022 32.8534C44.8587 34.1304 44.4505 35.3598 43.9182 36.5438C43.4098 37.6776 42.7915 38.747 42.0587 39.7544C41.3998 40.6591 40.6718 41.5017 39.8602 42.2704C38.86 43.218 37.7619 44.0368 36.5756 44.7386C35.8929 45.142 35.1863 45.4857 34.4057 45.6505C32.4913 46.0563 30.7249 45.6982 29.1446 44.55C28.0967 43.7885 27.3519 42.7764 26.896 41.5518C26.3016 39.9621 25.9245 38.3245 25.7765 36.6345C25.7359 36.1236 25.7287 35.6152 25.7048 35.1068ZM33.4008 43.5904C33.4724 43.5832 33.6037 43.5689 33.735 43.5594C34.8855 43.4782 35.8953 43.0462 36.7809 42.3181C37.0267 42.1152 37.1509 41.8335 37.1007 41.5184C36.9861 40.7808 36.1793 40.4729 35.604 40.9503C34.7614 41.6497 33.8018 41.8908 32.73 41.7189C31.99 41.5996 31.3598 41.2487 30.8442 40.714C30.3382 40.1888 30.0493 39.5491 29.9109 38.8306C29.7891 38.198 29.0849 37.9211 28.5407 38.2696C28.1874 38.4964 28.0681 38.8712 28.1898 39.4011C28.4739 40.64 29.1017 41.6617 30.1042 42.4518C31.0543 43.1989 32.1428 43.5451 33.4008 43.5904ZM30.1806 30.2705C29.3953 30.2825 28.6195 30.5546 27.9033 31.0559C27.4761 31.3543 27.3472 31.9749 27.6599 32.3783C27.9893 32.8032 28.5502 32.8486 28.9966 32.4977C29.4597 32.1325 29.9992 32.0083 30.5745 32.099C31.5747 32.259 32.2239 32.9632 32.3648 34.0063C32.4364 34.5434 32.8517 34.9158 33.3196 34.8633C33.8495 34.8036 34.1909 34.3787 34.1527 33.8249C34.0286 31.8842 32.2621 30.2705 30.1806 30.2705ZM38.416 33.221C37.4564 33.2448 36.6257 33.5289 35.9096 34.1137C35.7282 34.2617 35.5444 34.4336 35.4298 34.6341C35.2006 35.0351 35.3462 35.5149 35.7377 35.7942C36.06 36.0234 36.5422 35.9733 36.8525 35.6749C37.4779 35.0733 38.2179 34.8895 39.0343 35.1449C39.8053 35.386 40.2755 35.9351 40.4498 36.7324C40.5572 37.2217 41.0322 37.5344 41.5025 37.4365C42.0181 37.3267 42.3213 36.8541 42.2067 36.3337C42.0157 35.4696 41.5956 34.7439 40.9129 34.1686C40.1801 33.5456 39.3303 33.252 38.416 33.221Z" fill="white"/>
<path d="M33.4008 43.5904C32.1428 43.5451 31.0543 43.199 30.1042 42.4518C29.1017 41.6617 28.4739 40.64 28.1898 39.4011C28.0681 38.8712 28.185 38.4964 28.5407 38.2697C29.0849 37.9211 29.7867 38.198 29.9109 38.8306C30.0493 39.5491 30.3382 40.1889 30.8442 40.714C31.3598 41.2487 31.99 41.5996 32.73 41.719C33.7994 41.8908 34.759 41.6498 35.604 40.9503C36.1793 40.4729 36.9861 40.7809 37.1007 41.5185C37.1485 41.8336 37.0267 42.1176 36.7809 42.3181C35.8953 43.0462 34.8879 43.4782 33.735 43.5594C33.6037 43.5666 33.4724 43.5833 33.4008 43.5904Z" fill="#264653"/>
<path d="M30.1806 30.2714C32.2621 30.2714 34.0285 31.8851 34.1527 33.8257C34.1885 34.3819 33.8471 34.8068 33.3196 34.8641C32.8517 34.9166 32.4364 34.5443 32.3648 34.0072C32.2239 32.964 31.5746 32.2598 30.5744 32.0999C29.9992 32.0068 29.4597 32.1333 28.9966 32.4985C28.5502 32.8494 27.9893 32.8041 27.6598 32.3792C27.3471 31.9781 27.476 31.3551 27.9033 31.0567C28.6218 30.5555 29.3976 30.2833 30.1806 30.2714Z" fill="#264653"/>
<path d="M38.416 33.221C39.3303 33.252 40.1801 33.548 40.9129 34.1663C41.5932 34.7416 42.0134 35.4672 42.2067 36.3313C42.3237 36.8517 42.0205 37.3244 41.5025 37.4342C41.0323 37.5344 40.5572 37.2217 40.4498 36.73C40.2756 35.9327 39.8053 35.3837 39.0343 35.1426C38.2179 34.8872 37.4755 35.071 36.8525 35.6725C36.5422 35.9709 36.06 36.021 35.7377 35.7919C35.3486 35.5126 35.2006 35.0328 35.4298 34.6318C35.5444 34.4312 35.7282 34.2594 35.9096 34.1114C36.6257 33.5289 37.4564 33.2425 38.416 33.221Z" fill="#264653"/>
<path d="M14.9487 25.2888C13.9963 25.2673 13.1417 24.9832 12.4256 24.3387C12.237 24.1692 12.0461 23.9854 11.9172 23.7706C11.6856 23.3839 11.8002 22.9041 12.1368 22.6654C12.5354 22.3789 13.0152 22.3956 13.3327 22.7394C13.7671 23.212 14.2923 23.477 14.932 23.4889C15.8964 23.5056 16.7176 22.8897 16.9849 21.9612C17.0971 21.5721 17.3287 21.3095 17.7392 21.2403C18.0877 21.1806 18.3718 21.3071 18.589 21.5769C18.7704 21.8036 18.8182 22.0638 18.7513 22.3431C18.3384 24.0403 16.7343 25.315 14.9487 25.2888Z" fill="#264653"/>
<path d="M20.0308 21.5912C20.0762 21.1878 20.3101 20.844 20.6491 20.7294C21.0716 20.5862 21.4511 20.6936 21.7304 21.0994C22.2771 21.8967 23.4348 22.2285 24.361 21.7798C24.8623 21.5387 25.2036 21.152 25.4256 20.6483C25.6452 20.1518 26.1202 19.9489 26.5905 20.1422C27.0727 20.3404 27.2899 20.8345 27.0751 21.3358C26.4353 22.8229 25.2895 23.6441 23.6854 23.7706C22.5922 23.8565 21.623 23.5032 20.821 22.7465C20.6157 22.5532 20.4223 22.3407 20.2576 22.1116C20.1502 21.9636 20.1048 21.7678 20.0308 21.5912Z" fill="#264653"/>
</g>
<defs>
<clipPath id="clip0">
<rect width="54.5929" height="80.5" fill="white"/>
</clipPath>
</defs>
</svg>
