<svg width="55" height="81" viewBox="0 0 55 81" fill="none" xmlns="http://www.w3.org/2000/svg">
<g clip-path="url(#clip0)">
<path d="M27.0513 80.5C25.0899 77.6396 23.2102 74.9426 21.3305 72.164C16.1 64.3183 11.1965 56.3909 6.86501 47.9731C4.24978 42.8244 1.71628 37.6756 0.572115 31.9548C-1.38931 21.8208 1.55283 13.1579 9.39851 6.53808C22.3112 -4.33147 41.6802 -1.30761 50.5884 12.9944C55.0016 20.1046 55.5736 27.7051 53.0401 35.6325C50.7518 42.8244 47.0741 49.3624 43.3148 55.8188C38.4112 64.1548 33.099 72.164 27.4599 79.9279C27.3782 80.0914 27.2965 80.2548 27.0513 80.5Z" fill="#118AB2"/>
<path d="M27.5417 48.0548C31.3828 47.9731 34.897 46.9107 38.166 44.7858C47.2376 38.9015 50.098 26.5609 44.7858 16.8355C39.6371 7.43707 27.9503 3.67767 18.6335 8.4995C9.72541 13.1579 5.47567 23.2102 8.25435 33.2624C10.6244 41.9254 18.797 48.1366 27.5417 48.0548Z" fill="white"/>
<g clip-path="url(#clip1)">
<path d="M28.9565 25.1874C29.0215 25.0366 29.043 24.9749 29.072 24.9155C32.0361 19.1622 32.3539 18.6275 35.3292 12.8803C36.0133 11.5572 37.3156 10.9155 38.6666 11.1553C40.9171 11.5556 41.957 13.8146 40.8644 15.9397C38.4256 20.6798 35.9831 25.4179 33.5424 30.1579C31.0523 34.9926 28.5623 39.8273 26.0722 44.662C25.6866 45.4118 25.1021 45.888 24.2289 45.8727C23.3689 45.8579 22.709 45.4533 22.3164 44.6789C21.9694 43.9954 22.1071 43.3263 22.4431 42.673C24.2466 39.1765 28.6852 30.4552 30.4868 26.9568C30.6103 26.7193 30.7321 26.4798 30.8866 26.181C30.2464 25.8512 29.6173 25.5257 28.9565 25.1874Z" fill="#264653"/>
<path d="M21.6366 21.0078C22.0088 20.7617 22.3206 20.5566 22.689 20.3122C22.5962 20.1738 22.5125 20.0433 22.4268 19.9146C20.9981 17.7533 19.5712 15.5902 18.1444 13.427C18.05 13.2829 17.9462 13.1326 17.8999 12.9696C17.8089 12.6492 17.9355 12.3853 18.2101 12.2071C18.4848 12.029 18.773 12.0276 19.0315 12.2393C19.1433 12.3311 19.233 12.4542 19.3132 12.577C21.402 15.7343 23.4908 18.8934 25.5738 22.0543C26.2712 23.1124 26.1029 24.6105 25.159 25.4339C24.8797 25.6782 24.8793 25.8241 25.0702 26.1126C28.7844 31.7199 32.4908 37.3325 36.1933 42.9469C36.3324 43.1574 36.4653 43.3809 36.5579 43.616C36.9454 44.6044 36.5845 45.5827 35.6479 46.1372C34.8123 46.6315 33.7528 46.4473 33.0964 45.6827C32.9481 45.5098 32.8195 45.3206 32.6947 45.1297C29.0167 39.5637 25.3369 33.9957 21.6686 28.4245C21.4653 28.1165 21.3327 28.022 20.9534 28.211C19.7611 28.806 18.3745 28.3714 17.6074 27.2137C16.198 25.0873 14.7945 22.9573 13.389 20.8292C12.7166 19.81 12.0422 18.7926 11.3699 17.7715C11.0578 17.2979 11.1137 16.8643 11.5087 16.6171C11.8979 16.3755 12.2778 16.4936 12.5899 16.9652C14.0349 19.1481 15.4759 21.3345 16.9189 23.5173C17.0064 23.6479 17.0919 23.7804 17.1918 23.9305C17.5523 23.6933 17.87 23.4828 18.2364 23.2402C18.1419 23.096 18.0545 22.9654 17.9689 22.8348C16.5563 20.695 15.1418 18.5551 13.7292 16.4153C13.6632 16.314 13.5915 16.2163 13.5314 16.1114C13.328 15.758 13.4118 15.3824 13.7396 15.1571C14.0615 14.9373 14.4514 14.9971 14.6991 15.3315C14.9145 15.6228 15.1045 15.9321 15.3043 16.2342C16.585 18.1714 17.8638 20.1104 19.1445 22.0476C19.232 22.1782 19.3175 22.3107 19.4156 22.4588C19.78 22.218 20.1016 22.0057 20.4797 21.756C20.394 21.6274 20.3102 21.4988 20.2246 21.3702C18.7887 19.1972 17.3528 17.0242 15.9208 14.8494C15.8334 14.7169 15.7426 14.5767 15.6957 14.4269C15.5886 14.085 15.7212 13.8119 16.022 13.6424C16.3112 13.48 16.5973 13.5279 16.832 13.765C16.9339 13.8678 17.0099 13.9999 17.092 14.1227C18.5137 16.2723 19.9334 18.4238 21.355 20.5754C21.4404 20.7097 21.5278 20.8422 21.6366 21.0078Z" fill="#264653"/>
</g>
</g>
<defs>
<clipPath id="clip0">
<rect width="54.5929" height="80.5" fill="white"/>
</clipPath>
<clipPath id="clip1">
<rect width="29.9861" height="35.4235" fill="white" transform="translate(11.4663 10) rotate(2.37231)"/>
</clipPath>
</defs>
</svg>
