<svg width="55" height="81" viewBox="0 0 55 81" fill="none" xmlns="http://www.w3.org/2000/svg">
<g clip-path="url(#clip0)">
<path d="M27.0513 80.5C25.0899 77.6396 23.2102 74.9426 21.3305 72.164C16.1 64.3183 11.1965 56.3909 6.86501 47.9731C4.24978 42.8244 1.71628 37.6756 0.572115 31.9548C-1.38931 21.8208 1.55283 13.1579 9.39851 6.53807C22.3112 -4.33147 41.6802 -1.30761 50.5884 12.9944C55.0016 20.1046 55.5736 27.7051 53.0401 35.6325C50.7518 42.8244 47.0741 49.3624 43.3148 55.8188C38.4112 64.1548 33.099 72.164 27.4599 79.9279C27.3782 80.0914 27.2965 80.2548 27.0513 80.5Z" fill="#118AB2"/>
<path d="M27.5417 48.0548C31.3828 47.9731 34.897 46.9107 38.166 44.7858C47.2376 38.9015 50.098 26.5609 44.7858 16.8355C39.6371 7.43707 27.9503 3.67767 18.6335 8.4995C9.72541 13.1579 5.47567 23.2102 8.25435 33.2624C10.6244 41.9254 18.797 48.1366 27.5417 48.0548Z" fill="white"/>
<path d="M39.4714 21.9178C39.4714 21.9178 43.41 35.3703 43.9697 37.2709C44.5294 39.1715 43.1672 39.3237 42.2659 39.5618C41.3646 39.7999 20.7622 45.2246 18.8609 45.728C16.9554 46.2314 16.3668 44.5923 16.1611 43.8781C15.9553 43.1639 11.8274 29.0987 11.8274 29.0987L39.4714 21.9178ZM24.3098 32.2599C24.5197 32.9741 25.8819 37.63 25.9807 37.9617C26.0795 38.2934 26.4087 38.871 27.3882 38.1529C28.3636 37.4348 31.298 34.3595 31.6807 34.0005C32.0635 33.6454 32.0593 33.0834 30.8905 32.7751C29.7217 32.4706 25.6021 31.2998 25.1288 31.1711C24.6514 31.0462 24.03 31.3116 24.3098 32.2599Z" fill="#073B4C"/>
<path d="M31.4378 15.8921L24.3632 20.1187L22.9228 16.2278L29.9974 12.0012L31.4378 15.8921Z" fill="#073B4C"/>
<path d="M23.5401 20.6104L16.4655 24.8331L15.0251 20.9422L22.0997 16.7156L23.5401 20.6104Z" fill="#073B4C"/>
<path d="M15.6424 25.3249L11.4404 27.8343L10 23.9433L14.202 21.43L15.6424 25.3249Z" fill="#073B4C"/>
<path d="M36.4629 12.891L32.2568 15.4043L30.8164 11.5094L35.0225 9.00001L36.4629 12.891Z" fill="#073B4C"/>
</g>
<defs>
<clipPath id="clip0">
<rect width="54.5929" height="80.5" fill="white"/>
</clipPath>
</defs>
</svg>
