<svg width="55" height="81" viewBox="0 0 55 81" fill="none" xmlns="http://www.w3.org/2000/svg">
<g clip-path="url(#clip0)">
<path d="M27.0739 80.4701C25.1371 77.6425 23.2003 74.8967 21.3371 72.1019C16.1315 64.3058 11.1547 56.3626 6.88077 48.0026C4.25755 42.8787 1.71605 37.6813 0.604653 32.0017C-1.38932 21.8684 1.5853 13.2388 9.42228 6.58672C22.3096 -4.34746 41.6691 -1.29112 50.6175 13.0099C55.0386 20.0787 55.6188 27.7441 53.0528 35.6219C50.7237 42.7725 47.128 49.3346 43.3444 55.7905C38.4739 64.1096 33.1539 72.1428 27.4825 79.9389C27.3762 80.086 27.2537 80.2331 27.0739 80.4701ZM27.556 42.372C30.7921 42.323 33.7994 41.4731 36.5779 39.7979C44.2515 35.1561 46.7358 25.366 42.1758 17.6435C37.7711 10.1742 27.8747 7.24048 19.9724 11.0568C12.3887 14.7261 8.8012 22.6938 11.1466 30.6942C13.1487 37.526 20.0704 42.4456 27.556 42.372Z" fill="#FF0102"/>
<path d="M33.1761 21.6586C33.9384 22.0414 34.8215 22.2594 35.7594 22.2594C38.6553 22.2594 41 20.1856 41 17.6297C41 15.0738 38.6553 13 35.7594 13C32.8634 13 30.4995 14.8097 30.4995 17.3681" stroke="#264653" stroke-width="1.8662" stroke-miterlimit="10" stroke-linecap="round"/>
<path d="M19.7001 17.494C19.7001 17.494 31.1275 17.494 33.1349 17.494C35.1423 17.494 35.677 17.3753 35.06 18.6012C33.9932 20.721 26.8028 31.2717 26.8028 31.2717C26.8028 31.2717 18.9267 19.5412 18.3097 18.5842C17.6927 17.6273 17.9203 17.494 19.7001 17.494Z" stroke="#264653" stroke-width="1.8662" stroke-miterlimit="10"/>
<path d="M26.833 30.2082V40" stroke="#264653" stroke-width="1.8662" stroke-miterlimit="10" stroke-linecap="round"/>
<path d="M20.7805 40H32.3615" stroke="#264653" stroke-width="1.8662" stroke-miterlimit="10" stroke-linecap="round"/>
<path d="M21.7076 24.1782H32.0545L26.8028 31.2717L21.7076 24.1782Z" fill="#264653"/>
</g>
<defs>
<clipPath id="clip0">
<rect width="54.581" height="80.47" fill="white"/>
</clipPath>
</defs>
</svg>
