<svg width="55" height="81" viewBox="0 0 55 81" fill="none" xmlns="http://www.w3.org/2000/svg">
<g clip-path="url(#clip0)">
<path d="M27.0513 80.5C25.0899 77.6396 23.2102 74.9426 21.3305 72.164C16.1 64.3183 11.1965 56.3909 6.86502 47.9731C4.24979 42.8244 1.71628 37.6756 0.572122 31.9548C-1.3893 21.8208 1.55283 13.1579 9.39852 6.53807C22.3112 -4.33147 41.6802 -1.30761 50.5884 12.9944C55.0016 20.1046 55.5736 27.7051 53.0401 35.6325C50.7518 42.8244 47.0742 49.3624 43.3148 55.8188C38.4112 64.1548 33.099 72.164 27.4599 79.9279C27.3782 80.0914 27.2965 80.2548 27.0513 80.5Z" fill="#FF0102"/>
<path d="M27.5417 48.0548C31.3828 47.9731 34.897 46.9107 38.166 44.7858C47.2376 38.9015 50.098 26.5609 44.7858 16.8355C39.6371 7.43707 27.9503 3.67767 18.6335 8.4995C9.72542 13.1579 5.47568 23.2102 8.25436 33.2624C10.6244 41.9254 18.797 48.1366 27.5417 48.0548Z" fill="white"/>
<path d="M7.79538 19.6362C7.84312 19.1063 7.8288 18.445 7.96964 17.8196C8.3086 16.3158 9.748 15.4755 11.2948 15.8073C12.7414 16.1177 14.2047 16.2513 15.6847 16.1964C17.0477 16.1463 18.3916 15.9506 19.7116 15.5949C21.342 15.1557 22.8841 14.5088 24.3282 13.6303C24.7937 13.3463 25.2616 13.0765 25.8225 13.0168C26.584 12.9357 27.2524 13.1505 27.8587 13.6017C28.4435 14.0361 28.6894 14.683 28.952 15.3204C29.5153 16.6929 29.9092 18.1156 30.1503 19.5765C30.3198 20.5958 30.4177 21.6246 30.3962 22.6606C30.3914 22.854 30.4678 22.9351 30.6277 23.0258C30.8927 23.1738 31.1505 23.3457 31.3796 23.5462C32.5708 24.5965 33.8622 25.4988 35.2825 26.2197C36.7028 26.9406 38.1876 27.4801 39.7511 27.7737C40.6057 27.9337 41.4746 28.0291 42.3411 28.1031C42.9713 28.158 43.6086 28.1318 44.2436 28.1342C45.8119 28.1366 47.1033 29.4447 46.9935 31.0058C46.9338 31.8437 46.7763 32.6815 46.602 33.5051C46.2129 35.3431 45.5421 37.0809 44.6351 38.7256C44.0359 39.8141 43.358 40.8501 42.5464 41.7906C42.0857 42.3229 41.6297 42.8624 41.1261 43.3518C39.8012 44.6408 38.3475 45.7651 36.6933 46.6053C33.5853 48.1832 30.5943 47.9397 27.7704 45.9083C26.4933 44.9917 25.622 43.7432 25.0539 42.2776C24.3497 40.4562 23.92 38.5752 23.7768 36.6298C23.7625 36.4436 23.7171 36.4006 23.5357 36.4722C22.3995 36.9281 21.2179 37.1334 19.9933 37.0594C18.2269 36.9544 16.6562 36.3409 15.2717 35.2381C14.4601 34.5936 13.7129 33.8822 13.0111 33.1232C12.178 32.2208 11.4452 31.2398 10.7983 30.1918C10.0703 29.015 9.4711 27.7785 9.00085 26.4775C8.42557 24.883 8.05318 23.2407 7.91235 21.5506C7.8646 20.9515 7.83835 20.3523 7.79538 19.6362ZM25.5003 35.1068C25.5242 35.6153 25.5313 36.1261 25.5767 36.6321C25.7247 38.3222 26.1018 39.9597 26.6962 41.5495C27.1521 42.7741 27.8969 43.7862 28.9448 44.5477C30.5251 45.6959 32.2915 46.0539 34.2059 45.6481C34.9865 45.4834 35.6931 45.1373 36.3758 44.7363C37.5622 44.0368 38.6602 43.2157 39.6604 42.268C40.472 41.4994 41.2001 40.6567 41.8589 39.752C42.5917 38.7447 43.21 37.6753 43.7184 36.5414C44.2507 35.3574 44.6589 34.1281 44.9024 32.851C45.0241 32.2137 45.1316 31.5716 45.1841 30.927C45.2342 30.3064 44.7902 29.9149 44.1648 29.9364C42.8137 29.9794 41.4722 29.9054 40.1402 29.6762C38.9276 29.4685 37.7436 29.1534 36.5882 28.7286C35.1417 28.1962 33.7619 27.5302 32.4992 26.6518C31.6661 26.0717 30.8807 25.4225 30.0882 24.7875C29.6132 24.408 28.9926 24.4724 28.6512 24.9713C27.7656 26.2675 27.059 27.6568 26.5411 29.1344C25.8583 31.0655 25.5146 33.0563 25.5003 35.1068ZM9.61433 19.7627C9.6382 20.2186 9.6573 20.6793 9.68594 21.1401C9.75517 22.2071 9.93658 23.2574 10.2063 24.2934C10.6551 26.0168 11.3402 27.64 12.2688 29.1606C12.8154 30.0558 13.4289 30.9008 14.1307 31.6766C14.6296 32.2304 15.1643 32.7555 15.7133 33.2592C16.3339 33.8297 16.9952 34.3525 17.7805 34.6938C19.7522 35.5484 21.6857 35.472 23.5763 34.4456C23.6479 34.4074 23.7124 34.2904 23.7219 34.2045C23.8007 33.5337 23.8222 32.851 23.9487 32.1898C24.0322 31.7577 23.8675 31.5214 23.5596 31.3042C23.519 31.2756 23.4832 31.2445 23.445 31.2135C22.452 30.4258 20.8097 30.304 19.726 30.927C18.9526 31.371 18.4035 31.9965 18.0908 32.8343C17.9094 33.3141 17.4224 33.5576 16.9856 33.4048C16.4485 33.2186 16.2122 32.7173 16.4151 32.1803C16.7636 31.2612 17.3126 30.4878 18.0884 29.8743C18.9812 29.1678 19.9933 28.7835 21.1272 28.7262C22.2777 28.6689 23.3328 28.9816 24.2972 29.6094C24.4213 29.6905 24.481 29.6977 24.5287 29.5306C25.0706 27.6591 25.8942 25.919 26.9421 24.2791C27.3145 23.6966 27.7465 23.1882 28.4149 22.9423C28.5772 22.8826 28.6321 22.7967 28.6202 22.6344C28.5677 21.9326 28.5438 21.2284 28.465 20.529C28.2621 18.7363 27.7656 17.02 27.0304 15.3753C26.7869 14.8286 26.1902 14.6377 25.6626 14.9289C25.0897 15.2464 24.5264 15.5782 23.9487 15.8861C22.9676 16.4089 21.9364 16.8171 20.8718 17.1202C19.9074 17.3947 18.9215 17.6072 17.9357 17.7791C16.396 18.0464 14.8372 18.0679 13.2833 17.9127C12.4597 17.8292 11.641 17.6764 10.8222 17.5427C10.2278 17.4449 9.74084 17.7958 9.69071 18.3949C9.65013 18.8509 9.6382 19.3068 9.61433 19.7627Z" fill="#264653"/>
<path d="M25.5002 35.1068C25.5169 33.0586 25.8607 31.0654 26.5362 29.1367C27.0542 27.6567 27.7608 26.2674 28.6464 24.9736C28.9877 24.4747 29.6084 24.4103 30.0834 24.7898C30.8759 25.4248 31.6613 26.0741 32.4944 26.6541C33.7571 27.5326 35.1368 28.1986 36.5834 28.7309C37.7387 29.1558 38.9227 29.4709 40.1354 29.6786C41.4674 29.9053 42.8113 29.9817 44.16 29.9387C44.7854 29.9196 45.2294 30.3111 45.1792 30.9294C45.1267 31.5739 45.0193 32.216 44.8976 32.8534C44.6541 34.1304 44.2459 35.3598 43.7136 36.5438C43.2051 37.6776 42.5869 38.747 41.8541 39.7544C41.1952 40.6591 40.4672 41.5017 39.6556 42.2704C38.6554 43.218 37.5573 44.0368 36.371 44.7386C35.6883 45.142 34.9817 45.4857 34.2011 45.6505C32.2867 46.0563 30.5202 45.6982 28.94 44.55C27.8921 43.7885 27.1473 42.7764 26.6914 41.5518C26.097 39.9621 25.7198 38.3245 25.5718 36.6345C25.5313 36.1236 25.5241 35.6152 25.5002 35.1068ZM33.1962 43.5904C33.2678 43.5832 33.3991 43.5689 33.5303 43.5594C34.6809 43.4782 35.6906 43.0462 36.5762 42.3181C36.8221 42.1152 36.9462 41.8335 36.8961 41.5184C36.7815 40.7808 35.9747 40.4729 35.3994 40.9503C34.5568 41.6497 33.5972 41.8908 32.5254 41.7189C31.7854 41.5996 31.1552 41.2487 30.6396 40.714C30.1335 40.1888 29.8447 39.5491 29.7063 38.8306C29.5845 38.198 28.8803 37.9211 28.3361 38.2696C27.9828 38.4964 27.8634 38.8712 27.9852 39.4011C28.2692 40.64 28.897 41.6617 29.8996 42.4518C30.8497 43.1989 31.9382 43.5451 33.1962 43.5904ZM29.976 30.2705C29.1906 30.2825 28.4148 30.5546 27.6987 31.0559C27.2714 31.3543 27.1425 31.9749 27.4552 32.3783C27.7847 32.8032 28.3456 32.8486 28.792 32.4977C29.2551 32.1325 29.7946 32.0083 30.3699 32.099C31.37 32.259 32.0193 32.9632 32.1602 34.0063C32.2318 34.5434 32.6471 34.9158 33.115 34.8633C33.6449 34.8036 33.9863 34.3787 33.9481 33.8249C33.824 31.8842 32.0575 30.2705 29.976 30.2705ZM38.2114 33.221C37.2518 33.2448 36.4211 33.5289 35.705 34.1137C35.5235 34.2617 35.3397 34.4336 35.2252 34.6341C34.996 35.0351 35.1416 35.5149 35.5331 35.7942C35.8553 36.0234 36.3375 35.9733 36.6479 35.6749C37.2733 35.0733 38.0133 34.8895 38.8296 35.1449C39.6007 35.386 40.0709 35.9351 40.2452 36.7324C40.3526 37.2217 40.8276 37.5344 41.2979 37.4365C41.8135 37.3267 42.1166 36.8541 42.0021 36.3337C41.8111 35.4696 41.391 34.7439 40.7083 34.1686C39.9754 33.5456 39.1256 33.252 38.2114 33.221Z" fill="white"/>
<path d="M33.1961 43.5904C31.9382 43.5451 30.8497 43.199 29.8996 42.4518C28.897 41.6617 28.2692 40.64 27.9852 39.4011C27.8634 38.8712 27.9804 38.4964 28.3361 38.2697C28.8803 37.9211 29.5821 38.198 29.7062 38.8306C29.8447 39.5491 30.1335 40.1889 30.6396 40.714C31.1552 41.2487 31.7854 41.5996 32.5254 41.719C33.5948 41.8908 34.5544 41.6498 35.3994 40.9503C35.9747 40.4729 36.7815 40.7809 36.8961 41.5185C36.9438 41.8336 36.8221 42.1176 36.5762 42.3181C35.6906 43.0462 34.6833 43.4782 33.5303 43.5594C33.399 43.5666 33.2678 43.5833 33.1961 43.5904Z" fill="#264653"/>
<path d="M29.976 30.2714C32.0575 30.2714 33.8239 31.8851 33.948 33.8257C33.9839 34.3819 33.6425 34.8068 33.115 34.8641C32.6471 34.9166 32.2317 34.5443 32.1601 34.0072C32.0193 32.964 31.37 32.2598 30.3698 32.0999C29.7945 32.0068 29.2551 32.1333 28.792 32.4985C28.3456 32.8494 27.7846 32.8041 27.4552 32.3792C27.1425 31.9781 27.2714 31.3551 27.6987 31.0567C28.4172 30.5555 29.193 30.2833 29.976 30.2714Z" fill="#264653"/>
<path d="M38.2114 33.221C39.1257 33.252 39.9755 33.548 40.7083 34.1663C41.3886 34.7416 41.8087 35.4672 42.0021 36.3313C42.119 36.8517 41.8159 37.3244 41.2979 37.4342C40.8276 37.5344 40.3526 37.2217 40.2452 36.73C40.0709 35.9327 39.6007 35.3837 38.8297 35.1426C38.0133 34.8872 37.2709 35.071 36.6479 35.6725C36.3376 35.9709 35.8554 36.021 35.5331 35.7919C35.144 35.5126 34.996 35.0328 35.2252 34.6318C35.3398 34.4312 35.5236 34.2594 35.705 34.1114C36.4211 33.5289 37.2518 33.2425 38.2114 33.221Z" fill="#264653"/>
<path d="M14.7441 25.2888C13.7917 25.2673 12.9371 24.9832 12.221 24.3387C12.0324 24.1692 11.8414 23.9854 11.7125 23.7706C11.481 23.3839 11.5956 22.9041 11.9322 22.6654C12.3308 22.3789 12.8106 22.3956 13.1281 22.7394C13.5625 23.212 14.0877 23.477 14.7274 23.4889C15.6918 23.5056 16.5129 22.8897 16.7803 21.9612C16.8925 21.5721 17.124 21.3095 17.5346 21.2403C17.8831 21.1806 18.1672 21.3071 18.3844 21.5769C18.5658 21.8036 18.6136 22.0638 18.5467 22.3431C18.1338 24.0403 16.5297 25.315 14.7441 25.2888Z" fill="#264653"/>
<path d="M19.8262 21.5912C19.8716 21.1878 20.1055 20.844 20.4445 20.7294C20.867 20.5862 21.2465 20.6936 21.5258 21.0994C22.0724 21.8967 23.2302 22.2285 24.1564 21.7798C24.6576 21.5387 24.999 21.152 25.221 20.6483C25.4406 20.1518 25.9156 19.9489 26.3859 20.1422C26.8681 20.3404 27.0853 20.8345 26.8705 21.3358C26.2307 22.8229 25.0849 23.6441 23.4808 23.7706C22.3875 23.8565 21.4184 23.5032 20.6163 22.7465C20.411 22.5532 20.2177 22.3407 20.053 22.1116C19.9456 21.9636 19.9002 21.7678 19.8262 21.5912Z" fill="#264653"/>
</g>
<defs>
<clipPath id="clip0">
<rect width="54.5929" height="80.5" fill="white"/>
</clipPath>
</defs>
</svg>
