<svg width="55" height="81" viewBox="0 0 55 81" fill="none" xmlns="http://www.w3.org/2000/svg">
<g clip-path="url(#clip0)">
<path d="M27.0513 80.5C25.0899 77.6396 23.2102 74.9426 21.3305 72.164C16.1 64.3183 11.1965 56.3909 6.86501 47.9731C4.24978 42.8244 1.71628 37.6756 0.572115 31.9548C-1.38931 21.8208 1.55283 13.1579 9.39851 6.53807C22.3112 -4.33147 41.6802 -1.30761 50.5884 12.9944C55.0016 20.1046 55.5736 27.7051 53.0401 35.6325C50.7518 42.8244 47.0741 49.3624 43.3148 55.8188C38.4112 64.1548 33.099 72.164 27.4599 79.9279C27.3782 80.0914 27.2965 80.2548 27.0513 80.5Z" fill="#118AB2"/>
<path d="M27.5417 48.0548C31.3828 47.9731 34.897 46.9107 38.166 44.7858C47.2376 38.9015 50.098 26.5609 44.7858 16.8355C39.6371 7.43707 27.9503 3.67767 18.6335 8.4995C9.72541 13.1579 5.47567 23.2102 8.25435 33.2624C10.6244 41.9254 18.797 48.1366 27.5417 48.0548Z" fill="white"/>
<path d="M32.6697 21.0219C33.5573 21.5092 34.5854 21.7868 35.6774 21.7868C39.0492 21.7868 41.7792 19.1469 41.7792 15.8934C41.7792 12.6398 39.0492 10 35.6774 10C32.3057 10 29.5533 12.3037 29.5533 15.5603" stroke="#264653" stroke-width="2.19075" stroke-miterlimit="10" stroke-linecap="round"/>
<path d="M16.9794 15.7207C16.9794 15.7207 30.2845 15.7207 32.6217 15.7207C34.9589 15.7207 35.5816 15.5696 34.8632 17.13C33.6211 19.8285 25.2492 33.2589 25.2492 33.2589C25.2492 33.2589 16.079 18.3266 15.3606 17.1084C14.6422 15.8903 14.9072 15.7207 16.9794 15.7207Z" stroke="#264653" stroke-width="2.19075" stroke-miterlimit="10"/>
<path d="M25.2843 31.9051V44.3696" stroke="#264653" stroke-width="2.19075" stroke-miterlimit="10" stroke-linecap="round"/>
<path d="M18.2374 44.3696H31.7213" stroke="#264653" stroke-width="2.19075" stroke-miterlimit="10" stroke-linecap="round"/>
<path d="M19.3167 24.2292H31.3637L25.2492 33.2589L19.3167 24.2292Z" fill="#264653"/>
</g>
<defs>
<clipPath id="clip0">
<rect width="54.5929" height="80.5" fill="white"/>
</clipPath>
</defs>
</svg>
