<?xml version="1.0" encoding="utf-8"?>
<!-- Generator: Adobe Illustrator 24.1.0, SVG Export Plug-In . SVG Version: 6.00 Build 0)  -->
<svg version="1.1" id="Calque_1" xmlns="http://www.w3.org/2000/svg" xmlns:xlink="http://www.w3.org/1999/xlink" x="0px" y="0px"
	 viewBox="0 0 25 28" style="enable-background:new 0 0 25 28;" xml:space="preserve">
<style type="text/css">
	.st0{fill:#264653;stroke:#264653;stroke-width:0.6;}
	.st1{fill:#264653;}
</style>
<g>
	<path class="st0" d="M24.1,25.6c0,0,0,0.1,0,0.1c0,0.1,0,0.1,0,0.2c0,0.2,0,0.4-0.1,0.6c-0.1,0.3-0.3,0.5-0.7,0.5
		c-0.3,0-0.5-0.1-0.6-0.5c-0.1-0.3-0.1-0.6-0.1-0.9c0-2.4-0.9-4.5-2.6-6.3c-0.2-0.3-0.5-0.6-0.6-0.9c0-0.2-0.1-0.3,0-0.5
		c0-0.4,0.4-0.6,0.8-0.5c0.2,0.1,0.4,0.2,0.6,0.4c1.5,1.6,2.5,3.4,3,5.5C24,24,24.1,24.8,24.1,25.6z"/>
	<path class="st1" d="M6,8.8l-0.4,0v0L6,8.8z M4.9,10.2l-0.4,0.1l0,0L4.9,10.2z"/>
	<path class="st0" d="M19.2,8.8c0-3.6-3-6.6-6.6-6.6C9,2.2,6,5.1,6,8.8c0,3.7,2.9,6.6,6.6,6.6C16.2,15.4,19.2,12.5,19.2,8.8z
		 M13.2,0.9C13.3,1,13.5,1,13.7,1c1.4,0.2,2.7,0.7,3.8,1.6C19,3.8,20,5.3,20.3,7.2c0.5,2.4,0,4.6-1.6,6.5c-1.1,1.4-2.6,2.3-4.3,2.8
		c-0.8,0.2-1.7,0.3-2.6,0.2c-0.4,0-0.9-0.1-1.3-0.1c-1-0.1-1.9,0.2-2.8,0.7c-1.5,0.8-2.6,1.9-3.5,3.3c-0.8,1.1-1.3,2.4-1.5,3.7
		c-0.1,0.4-0.1,0.8-0.1,1.3c0,0.3-0.1,0.6-0.2,0.9c-0.2,0.4-0.5,0.5-0.9,0.4c-0.2,0-0.3-0.2-0.3-0.3c-0.1-0.2-0.1-0.3-0.1-0.5
		c0-0.9,0.1-1.7,0.3-2.5c0.4-1.9,1.2-3.5,2.4-5c1.1-1.4,2.5-2.4,4.1-3.1c0,0,0.1,0,0.1-0.1c-0.4-0.3-0.8-0.6-1.2-1
		c-1.1-1.1-1.7-2.5-2-4C4.5,7.9,5,5.7,6.5,3.9c1.2-1.5,2.8-2.4,4.7-2.8C11.4,1,11.7,1,12,0.9c0,0,0,0,0.1,0c0.1,0,0.1,0,0.2,0
		c0.1,0,0.1,0,0.2,0c0.2,0,0.4,0,0.5,0c0.1,0,0.1,0,0.2,0C13.1,0.9,13.1,0.9,13.2,0.9z"/>
</g>
</svg>
