<svg width="24" height="27" viewBox="0 0 24 27" fill="none" xmlns="http://www.w3.org/2000/svg">
<path d="M23.3 25V25.1C23.3 25.2 23.3 25.2 23.3 25.3C23.3 25.5 23.3 25.7 23.2 25.9C23.1 26.2 22.9 26.4 22.5 26.4C22.2 26.4 22 26.3 21.9 25.9C21.8 25.6 21.8 25.3 21.8 25C21.8 22.6 20.9 20.5 19.2 18.7C19 18.4 18.7 18.1 18.6 17.8C18.6 17.6 18.5 17.5 18.6 17.3C18.6 16.9 19 16.7 19.4 16.8C19.6 16.9 19.8 17 20 17.2C21.5 18.8 22.5 20.6 23 22.7C23.2 23.4 23.3 24.2 23.3 25Z" fill="white" stroke="white" stroke-width="0.6"/>
<path d="M5.20001 8.2H4.80001H5.20001ZM4.10001 9.6L3.70001 9.7L4.10001 9.6Z" fill="white"/>
<path d="M18.4 8.2C18.4 4.6 15.4 1.6 11.8 1.6C8.19999 1.6 5.19999 4.5 5.19999 8.2C5.19999 11.9 8.09999 14.8 11.8 14.8C15.4 14.8 18.4 11.9 18.4 8.2ZM12.4 0.300003C12.5 0.400003 12.7 0.400003 12.9 0.400003C14.3 0.600003 15.6 1.1 16.7 2C18.2 3.2 19.2 4.7 19.5 6.6C20 9 19.5 11.2 17.9 13.1C16.8 14.5 15.3 15.4 13.6 15.9C12.8 16.1 11.9 16.2 11 16.1C10.6 16.1 10.1 16 9.69999 16C8.69999 15.9 7.79999 16.2 6.89999 16.7C5.39999 17.5 4.29999 18.6 3.39999 20C2.59999 21.1 2.09999 22.4 1.89999 23.7C1.79999 24.1 1.79999 24.5 1.79999 25C1.79999 25.3 1.69999 25.6 1.59999 25.9C1.39999 26.3 1.09999 26.4 0.699988 26.3C0.499988 26.3 0.399988 26.1 0.399988 26C0.299988 25.8 0.299988 25.7 0.299988 25.5C0.299988 24.6 0.399988 23.8 0.599988 23C0.999988 21.1 1.79999 19.5 2.99999 18C4.09999 16.6 5.49999 15.6 7.09999 14.9C7.09999 14.9 7.19999 14.9 7.19999 14.8C6.79999 14.5 6.39999 14.2 5.99999 13.8C4.89999 12.7 4.29999 11.3 3.99999 9.8C3.69999 7.3 4.19999 5.1 5.69999 3.3C6.89999 1.8 8.49999 0.900003 10.4 0.500003C10.6 0.400003 10.9 0.400003 11.2 0.300003C11.2 0.300003 11.2 0.300003 11.3 0.300003C11.4 0.300003 11.4 0.300003 11.5 0.300003C11.6 0.300003 11.6 0.300003 11.7 0.300003C11.9 0.300003 12.1 0.300003 12.2 0.300003C12.3 0.300003 12.3 0.300003 12.4 0.300003C12.3 0.300003 12.3 0.300003 12.4 0.300003Z" fill="white"/>
<path d="M12.4 0.300003C12.5 0.400003 12.7 0.400003 12.9 0.400003C14.3 0.600003 15.6 1.1 16.7 2C18.2 3.2 19.2 4.7 19.5 6.6C20 9 19.5 11.2 17.9 13.1C16.8 14.5 15.3 15.4 13.6 15.9C12.8 16.1 11.9 16.2 11 16.1C10.6 16.1 10.1 16 9.69999 16C8.69999 15.9 7.79999 16.2 6.89999 16.7C5.39999 17.5 4.29999 18.6 3.39999 20C2.59999 21.1 2.09999 22.4 1.89999 23.7C1.79999 24.1 1.79999 24.5 1.79999 25C1.79999 25.3 1.69999 25.6 1.59999 25.9C1.39999 26.3 1.09999 26.4 0.699988 26.3C0.499988 26.3 0.399988 26.1 0.399988 26C0.299988 25.8 0.299988 25.7 0.299988 25.5C0.299988 24.6 0.399988 23.8 0.599988 23C0.999988 21.1 1.79999 19.5 2.99999 18C4.09999 16.6 5.49999 15.6 7.09999 14.9C7.09999 14.9 7.19999 14.9 7.19999 14.8C6.79999 14.5 6.39999 14.2 5.99999 13.8C4.89999 12.7 4.29999 11.3 3.99999 9.8C3.69999 7.3 4.19999 5.1 5.69999 3.3C6.89999 1.8 8.49999 0.900003 10.4 0.500003C10.6 0.400003 10.9 0.400003 11.2 0.300003C11.2 0.300003 11.2 0.300003 11.3 0.300003C11.4 0.300003 11.4 0.300003 11.5 0.300003C11.6 0.300003 11.6 0.300003 11.7 0.300003C11.9 0.300003 12.1 0.300003 12.2 0.300003C12.3 0.300003 12.3 0.300003 12.4 0.300003ZM12.4 0.300003C12.3 0.300003 12.3 0.300003 12.4 0.300003ZM18.4 8.2C18.4 4.6 15.4 1.6 11.8 1.6C8.19999 1.6 5.19999 4.5 5.19999 8.2C5.19999 11.9 8.09999 14.8 11.8 14.8C15.4 14.8 18.4 11.9 18.4 8.2Z" stroke="white" stroke-width="0.6"/>
</svg>
