<svg width="68" height="79" viewBox="0 0 68 79" fill="none" xmlns="http://www.w3.org/2000/svg">
<path d="M62.8106 13.706C62.4621 10.2015 59.6547 6.69707 55.4469 5.29653C51.239 3.88976 43.8815 1.43726 33.7167 1.43726C23.5519 1.43726 16.599 3.95823 10.5797 6.69707C6.72668 8.45242 4.97134 11.6021 4.97134 14.0608C4.97134 18.3247 1.93372 42.3207 1.93372 42.3207C1.93372 44.2565 1.93372 58.6168 1.93372 62.4885C1.93372 66.3664 6.19759 66.7523 6.19759 66.7523H9.75808C9.67094 68.794 9.57757 71.4955 9.62736 72.8836C9.80165 77.7139 13.5178 77.0915 16.1383 76.9981C18.7589 76.9047 22.7489 77.3342 22.6244 73.7115C22.5497 71.6947 22.4999 68.8625 22.4626 66.7461H46.2095C46.1224 68.7878 46.029 71.4893 46.0788 72.8774C46.2531 77.7077 49.9692 77.0852 52.5898 76.9919C55.2104 76.8985 59.2004 77.328 59.0759 73.7053C59.0012 71.6885 58.9514 68.8563 58.914 66.7399H61.7524C61.7524 66.7399 66.0163 66.354 66.0163 62.476C66.0163 58.5981 66.0163 44.2441 66.0163 42.3082C66.0163 42.3144 63.1592 17.2105 62.8106 13.706Z" stroke="#264653" stroke-width="2.5" stroke-miterlimit="10"/>
<path d="M20.7446 6.34229H33.0133H34.9243H47.193C48.9484 6.34229 50.6975 6.69086 50.6975 9.14337C50.6975 11.5959 49.6456 11.5959 46.4897 11.5959C43.3338 11.5959 34.5695 11.5959 34.5695 11.5959H33.3619C33.3619 11.5959 24.5976 11.5959 21.4417 11.5959C18.2858 11.5959 17.2339 11.5959 17.2339 9.14337C17.2339 6.69086 18.9955 6.34229 20.7446 6.34229Z" fill="#118AB2"/>
<path d="M18.0446 57.5008C20.6427 56.4246 21.8765 53.446 20.8003 50.8479C19.7241 48.2498 16.7455 47.0161 14.1474 48.0922C11.5493 49.1684 10.3155 52.147 11.3917 54.7451C12.4679 57.3432 15.4465 58.577 18.0446 57.5008Z" fill="#264653"/>
<path d="M53.8931 57.501C56.4912 56.4248 57.725 53.4462 56.6488 50.8481C55.5726 48.25 52.594 47.0162 49.9959 48.0924C47.3978 49.1686 46.164 52.1472 47.2402 54.7453C48.3164 57.3434 51.295 58.5772 53.8931 57.501Z" fill="#264653"/>
<path d="M56.7292 39.2955C53.6915 39.2955 12.3289 39.2955 10.9283 39.2955C9.52776 39.2955 7.1873 39.532 7.65415 35.3242C8.121 31.1163 9.75808 18.7355 9.98839 17.0985C10.2249 15.4614 11.1586 14.7642 13.7294 14.7642C13.7294 14.7642 51.1208 14.7642 53.455 14.7642C55.7892 14.7642 57.6629 14.7642 57.8932 17.335C58.1297 19.9058 60.2274 34.8636 60.2274 35.7973C60.2274 36.731 59.773 39.2955 56.7292 39.2955Z" stroke="#264653" stroke-width="2.5" stroke-miterlimit="10"/>
</svg>
