<svg width="81" height="91" viewBox="0 0 81 91" fill="none" xmlns="http://www.w3.org/2000/svg">
<path d="M37.2551 24.7689C39.0262 25.7755 41.0775 26.3489 43.2563 26.3489C49.9838 26.3489 55.4307 20.8956 55.4307 14.1745C55.4307 7.45336 49.9838 2.00003 43.2563 2.00003C36.5288 2.00003 31.0373 6.75895 31.0373 13.4864" stroke="#264653" stroke-width="2.5" stroke-miterlimit="10" stroke-linecap="round"/>
<path d="M5.94941 13.8177C5.94941 13.8177 32.4962 13.8177 37.1595 13.8177C41.8229 13.8177 43.0652 13.5055 41.6318 16.7291C39.1536 22.3035 22.4496 50.0479 22.4496 50.0479C22.4496 50.0479 4.15287 19.2009 2.71946 16.6845C1.28605 14.1681 1.81482 13.8177 5.94941 13.8177Z" stroke="#264653" stroke-width="2.5" stroke-miterlimit="10"/>
<path d="M22.5197 47.2512V73" stroke="#264653" stroke-width="2.5" stroke-miterlimit="10" stroke-linecap="round"/>
<path d="M8.45947 73H35.363" stroke="#264653" stroke-width="2.5" stroke-miterlimit="10" stroke-linecap="round"/>
<path d="M10.6128 31.3945H34.6495L22.4496 50.0479L10.6128 31.3945Z" fill="#264653"/>
<path d="M67.6207 45.9964C67.6207 45.9964 73.7174 66.8204 74.5839 69.7625C75.4503 72.7045 73.3416 72.9401 71.9464 73.3087C70.5512 73.6772 38.6594 82.0744 35.7162 82.8538C32.7665 83.6331 31.8555 81.0958 31.537 79.9902C31.2184 78.8847 24.8286 57.1122 24.8286 57.1122L67.6207 45.9964ZM44.151 62.0056C44.4759 63.1111 46.5846 70.3183 46.7375 70.8318C46.8904 71.3453 47.4 72.2394 48.9163 71.1278C50.4261 70.0162 54.9684 65.2557 55.5609 64.6999C56.1534 64.1502 56.147 63.2803 54.3377 62.803C52.5285 62.3318 46.1514 60.5194 45.4187 60.3201C44.6797 60.1267 43.7178 60.5375 44.151 62.0056Z" fill="#118AB2"/>
<path d="M55.185 36.6688L44.2338 43.2114L42.004 37.1883L52.9553 30.6457L55.185 36.6688Z" fill="#118AB2"/>
<path d="M42.9596 43.9726L32.0084 50.5092L29.7786 44.4861L40.7299 37.9435L42.9596 43.9726Z" fill="#118AB2"/>
<path d="M30.7342 51.2704L24.2297 55.1549L22 49.1318L28.5045 45.2412L30.7342 51.2704Z" fill="#118AB2"/>
<path d="M62.9637 32.0231L56.4528 35.9136L54.2231 29.8845L60.734 26L62.9637 32.0231Z" fill="#118AB2"/>
</svg>
