<svg width="115" height="81" viewBox="0 0 115 81" fill="none" xmlns="http://www.w3.org/2000/svg">
<path d="M36.6785 77.9701C38.6204 77.9701 37.9712 75.0572 37.9712 75.0572C37.9712 75.0572 45.4114 77.3208 48.9735 78.6135C52.5356 79.9062 51.8863 75.3789 50.2662 73.1153C48.646 70.8516 41.2058 65.3533 41.2058 65.3533L42.1767 46.2673H48.0025C48.0025 46.2673 62.8829 50.7947 66.1175 51.4439C69.3521 52.0931 69.6739 51.4439 69.6739 49.1802C69.6739 46.9166 69.6739 44.3254 68.3812 43.6819C67.0885 43.0327 62.5554 41.0965 62.5554 41.0965C62.5554 41.0965 63.2046 35.92 58.6716 35.92C58.6716 35.92 57.3789 36.5692 55.7587 37.5402C53.8972 38.6548 57.3789 33.6563 53.8168 32.0419C50.9039 30.7147 48.3185 32.6911 48.3185 32.6911L43.142 29.7783C43.142 29.7783 43.7912 19.7469 43.142 13.5994C42.4985 7.44042 39.9131 1.94214 36.0292 1.94214H35.7937C31.9098 1.94214 29.3244 7.44042 28.6752 13.5879C28.026 19.7354 28.6752 29.7668 28.6752 29.7668L23.4987 32.6796C23.4987 32.6796 20.9133 30.709 18.0004 32.0304C14.444 33.6506 17.92 38.649 16.0585 37.5287C14.4383 36.5577 13.1456 35.9085 13.1456 35.9085C8.61829 35.9085 9.26176 41.0851 9.26176 41.0851C9.26176 41.0851 4.73445 43.027 3.436 43.6705C2.14905 44.3254 2.14905 46.9108 2.14905 49.1802C2.14905 51.4439 2.47079 52.0931 5.70541 51.4439C8.94002 50.7947 23.8204 46.2673 23.8204 46.2673H29.6462L30.6171 65.3533C30.6171 65.3533 23.1769 70.8516 21.5568 73.1153C19.9366 75.3789 19.2931 79.912 22.8495 78.6135C26.4058 77.3151 33.8518 75.0572 33.8518 75.0572C33.8518 75.0572 33.2025 77.9701 35.1445 77.9701H36.6785V77.9701Z" stroke="#118AB2" stroke-width="3" stroke-miterlimit="10"/>
<path d="M48.7379 21.0281C48.7379 21.0281 102.284 21.0281 104.548 21.0281C111.506 21.0281 113.281 24.7511 113.281 29.761C113.281 31.4789 113.281 35.627 113.281 40.4359C113.281 49.6628 113.281 61.3259 113.281 62.9231C113.281 65.3476 112.31 72.466 103.899 72.466C95.4876 72.466 59.7344 72.466 59.7344 72.466" stroke="#264653" stroke-width="3" stroke-miterlimit="10" stroke-linecap="round"/>
<path d="M73.4888 40.4416H113.281" stroke="#264653" stroke-width="3" stroke-miterlimit="10" stroke-linecap="round"/>
<path d="M75.2641 53.0583H112.959" stroke="#264653" stroke-width="3" stroke-miterlimit="10" stroke-linecap="round"/>
<path d="M62.3256 20.5455C62.3256 20.5455 62.3256 16.3399 62.3256 14.7198C62.3256 13.0996 62.6474 11.4851 66.3703 11.4851C70.0933 11.4851 81.7391 11.4851 83.1927 11.4851C84.6462 11.4851 85.9447 13.2662 85.9447 14.0705C85.9447 14.8749 85.9447 20.5398 85.9447 20.5398" stroke="#264653" stroke-width="3" stroke-miterlimit="10" stroke-linecap="round"/>
</svg>
