<svg width="96" height="82" viewBox="0 0 96 82" fill="none" xmlns="http://www.w3.org/2000/svg">
<path d="M25.7579 29.9362C25.7579 29.9362 6.58307 44.7526 3.97149 47.0391C1.77196 48.9659 1.69071 50.5735 2.00991 51.9431C2.6657 54.723 6.91387 53.5797 6.91387 53.5797C6.91387 53.5797 7.89466 73.1897 7.89466 74.8205C7.89466 76.4513 7.56966 79.7245 12.4678 79.7245L47.4223 77.8383C52.3089 77.4147 51.6995 74.1879 51.5602 72.5572C51.421 70.9264 50.7013 51.3105 50.7013 51.3105C50.7013 51.3105 55.0307 52.0824 55.4428 49.2619C55.6459 47.8691 55.4254 46.2731 53.0633 44.5494L49.233 41.166" stroke="#264653" stroke-width="3" stroke-miterlimit="10"/>
<path d="M54.7173 38.8678L66.7189 48.6699C66.7189 48.6699 73.5845 46.5459 73.747 48.0142C73.9095 49.4824 73.747 54.2239 73.747 54.2239C73.7528 55.0364 80.7808 53.7016 81.1 54.2239C82.0518 55.7792 79.5795 61.5653 83.2241 62.2327C86.8165 62.8885 90.0897 62.5577 92.3762 62.5577C94.1811 62.5577 94.1753 62.3952 94.1753 62.3952C94.1753 62.3952 94.1753 60.4337 94.1753 58.4721C94.1753 56.5105 93.8503 52.5873 91.8887 50.6315C89.9272 48.6699 66.5622 29.5532 66.5622 29.5532L63.6779 27.4465C64.1654 25.7113 64.4266 23.8774 64.4266 21.9854C64.4266 10.8775 55.4195 1.87048 44.3116 1.87048C33.2037 1.87048 24.1967 10.8775 24.1967 21.9854C24.1967 33.0933 33.2037 42.1004 44.3116 42.1004C48.229 42.1004 50.3763 41.4794 53.6436 39.8428L54.7173 38.8678Z" stroke="#118AB2" stroke-width="3" stroke-miterlimit="10"/>
<path d="M38.775 24.0573C42.5988 24.0573 45.6986 20.9575 45.6986 17.1337C45.6986 13.3099 42.5988 10.2101 38.775 10.2101C34.9512 10.2101 31.8514 13.3099 31.8514 17.1337C31.8514 20.9575 34.9512 24.0573 38.775 24.0573Z" stroke="#118AB2" stroke-width="2.90175" stroke-miterlimit="10"/>
<path d="M27.1738 50.5271C30.9976 50.5271 34.0974 47.4273 34.0974 43.6035C34.0974 39.7797 30.9976 36.6799 27.1738 36.6799C23.35 36.6799 20.2502 39.7797 20.2502 43.6035C20.2502 47.4273 23.35 50.5271 27.1738 50.5271Z" stroke="#264653" stroke-width="2.90175" stroke-miterlimit="10"/>
<path d="M38.775 17.1337C38.775 17.1337 29.6868 17.0757 25.2123 24.1618C21.2891 30.3715 22.1074 35.6005 27.1738 43.6093" stroke="#264653" stroke-width="2.90175" stroke-miterlimit="10" stroke-linecap="round"/>
</svg>
