<?xml version="1.0" encoding="utf-8"?>
<!-- Generator: Adobe Illustrator 24.1.0, SVG Export Plug-In . SVG Version: 6.00 Build 0)  -->
<svg version="1.1" id="Calque_1" xmlns="http://www.w3.org/2000/svg" xmlns:xlink="http://www.w3.org/1999/xlink" x="0px" y="0px"
	 viewBox="0 0 68 79" style="enable-background:new 0 0 68 79;" xml:space="preserve">
<style type="text/css">
	.st0{fill:none;stroke:#264653;stroke-width:2.7783;stroke-linecap:round;stroke-miterlimit:10;}
	.st1{fill:none;stroke:#264653;stroke-width:2.7783;stroke-miterlimit:10;}
	.st2{fill:#264653;}
	.st3{fill:#118AB2;}
</style>
<g>
	<path class="st0" d="M25.5,55.7l-0.6,21.6"/>
	<g>
		<path class="st0" d="M43.4,28.6c2.1,1.2,4.7,1.8,7.3,1.8c8.1,0,14.7-6.4,14.7-14.4S58.8,1.7,50.7,1.7c-8.1,0-14.8,5.7-14.8,13.6"
			/>
		<path class="st1" d="M5.4,15.6c0,0,32,0,37.7,0s7.2-0.3,5.4,3.5c-2.9,6.5-23.2,39.5-23.2,39.5S3.3,22,1.6,19S0.6,15.6,5.4,15.6z"
			/>
		<path class="st0" d="M8.5,77.5h32.6"/>
		<path class="st2" d="M11.1,36.4h29.1L25.5,58.6L11.1,36.4z"/>
	</g>
</g>
<g>
	<path class="st3" d="M61.5,46.6c0,0,5.5,17.9,6.2,20.6c0.8,2.5-1.1,2.8-2.4,3c-1.3,0.3-27.8,8.1-30.4,8.7c-2.6,0.7-3.4-1.6-3.8-2.5
		c-0.2-1-5.9-19.8-5.9-19.8L61.5,46.6z M42.6,60.9c0.2,0.9,2.1,7.2,2.4,7.6c0.2,0.4,0.6,1.2,1.9,0.2c1.4-0.9,5.5-5.1,5.9-5.5
		c0.5-0.4,0.5-1.2-1.1-1.6c-1.6-0.5-7.3-2-7.9-2.2C43,59.3,42.1,59.6,42.6,60.9z"/>
	<path class="st3" d="M52.4,39.1l-9.9,5.7l-1.9-5.2l9.9-5.7L52.4,39.1z"/>
	<path class="st3" d="M41.6,45.4l-9.9,5.7l-1.9-5.3l9.9-5.7L41.6,45.4z"/>
	<path class="st3" d="M30.6,51.7L24.8,55l-1.9-5.2l5.8-3.3L30.6,51.7z"/>
	<path class="st3" d="M59.4,35.1l-5.8,3.3l-1.9-5.2l5.8-3.3L59.4,35.1z"/>
</g>
</svg>
