<svg width="40" height="35" viewBox="0 0 40 35" fill="none" xmlns="http://www.w3.org/2000/svg">
<path d="M0.79538 6.6362C0.843121 6.10627 0.828799 5.44505 0.969636 4.81964C1.3086 3.31578 2.748 2.47553 4.29483 2.80733C5.74139 3.11765 7.20467 3.25133 8.68465 3.19643C10.0477 3.1463 11.3916 2.95056 12.7116 2.59488C14.342 2.15566 15.8841 1.50877 17.3282 0.630325C17.7937 0.346263 18.2616 0.0765241 18.8225 0.0168473C19.584 -0.0643131 20.2524 0.150523 20.8587 0.60168C21.4435 1.03613 21.6894 1.68302 21.952 2.32037C22.5153 3.69294 22.9092 5.11563 23.1503 6.57652C23.3198 7.5958 23.4177 8.62463 23.3962 9.66062C23.3914 9.85397 23.4678 9.93513 23.6277 10.0258C23.8927 10.1738 24.1505 10.3457 24.3796 10.5462C25.5708 11.5965 26.8622 12.4988 28.2825 13.2197C29.7028 13.9406 31.1876 14.4801 32.7511 14.7737C33.6057 14.9337 34.4746 15.0291 35.3411 15.1031C35.9713 15.158 36.6086 15.1318 37.2436 15.1342C38.8119 15.1366 40.1033 16.4447 39.9935 18.0058C39.9338 18.8437 39.7763 19.6815 39.602 20.5051C39.2129 22.3431 38.5421 24.0809 37.6351 25.7256C37.0359 26.8141 36.358 27.8501 35.5464 28.7906C35.0857 29.3229 34.6297 29.8624 34.1261 30.3518C32.8012 31.6408 31.3475 32.7651 29.6933 33.6053C26.5853 35.1832 23.5943 34.9397 20.7704 32.9083C19.4933 31.9917 18.622 30.7432 18.0539 29.2776C17.3497 27.4562 16.92 25.5752 16.7768 23.6298C16.7625 23.4436 16.7171 23.4006 16.5357 23.4722C15.3995 23.9281 14.2179 24.1334 12.9933 24.0594C11.2269 23.9544 9.65619 23.3409 8.27169 22.2381C7.46008 21.5936 6.71293 20.8822 6.01113 20.1231C5.17804 19.2208 4.44521 18.2398 3.79832 17.1918C3.07026 16.015 2.4711 14.7785 2.00085 13.4775C1.42557 11.883 1.05318 10.2407 0.912346 8.55063C0.864605 7.95147 0.838347 7.35232 0.79538 6.6362ZM18.5003 22.1068C18.5242 22.6153 18.5313 23.1261 18.5767 23.6321C18.7247 25.3222 19.1018 26.9597 19.6962 28.5495C20.1521 29.7741 20.8969 30.7862 21.9448 31.5477C23.5251 32.6959 25.2915 33.0539 27.2059 32.6481C27.9865 32.4834 28.6931 32.1373 29.3758 31.7363C30.5622 31.0368 31.6602 30.2157 32.6604 29.268C33.472 28.4994 34.2001 27.6567 34.8589 26.752C35.5917 25.7447 36.21 24.6753 36.7184 23.5414C37.2507 22.3574 37.6589 21.1281 37.9024 19.851C38.0241 19.2137 38.1316 18.5716 38.1841 17.927C38.2342 17.3064 37.7902 16.9149 37.1648 16.9364C35.8137 16.9794 34.4722 16.9054 33.1402 16.6762C31.9276 16.4685 30.7436 16.1535 29.5882 15.7286C28.1417 15.1962 26.7619 14.5302 25.4992 13.6518C24.6661 13.0717 23.8807 12.4225 23.0882 11.7875C22.6132 11.408 21.9926 11.4724 21.6512 11.9713C20.7656 13.2675 20.059 14.6568 19.5411 16.1344C18.8583 18.0655 18.5146 20.0563 18.5003 22.1068ZM2.61433 6.76271C2.6382 7.21864 2.6573 7.67935 2.68594 8.14005C2.75517 9.20707 2.93658 10.2574 3.20632 11.2934C3.65509 13.0168 4.34018 14.64 5.26875 16.1606C5.81539 17.0558 6.42887 17.9008 7.13067 18.6766C7.62957 19.2304 8.16427 19.7555 8.71329 20.2592C9.33393 20.8297 9.99515 21.3525 10.7805 21.6938C12.7522 22.5484 14.6857 22.472 16.5763 21.4456C16.6479 21.4074 16.7124 21.2904 16.7219 21.2045C16.8007 20.5337 16.8222 19.851 16.9487 19.1898C17.0322 18.7577 16.8675 18.5214 16.5596 18.3042C16.519 18.2756 16.4832 18.2445 16.445 18.2135C15.452 17.4258 13.8097 17.304 12.726 17.927C11.9526 18.371 11.4035 18.9965 11.0908 19.8343C10.9094 20.3141 10.4224 20.5576 9.9856 20.4048C9.44851 20.2186 9.21219 19.7173 9.41509 19.1803C9.76361 18.2612 10.3126 17.4878 11.0884 16.8743C11.9812 16.1678 12.9933 15.7835 14.1272 15.7262C15.2777 15.6689 16.3328 15.9816 17.2972 16.6094C17.4213 16.6905 17.481 16.6977 17.5287 16.5306C18.0706 14.6591 18.8942 12.919 19.9421 11.2791C20.3145 10.6966 20.7465 10.1882 21.4149 9.94229C21.5772 9.88261 21.6321 9.79668 21.6202 9.63436C21.5677 8.93256 21.5438 8.22837 21.465 7.52896C21.2621 5.73627 20.7656 4.01997 20.0304 2.37527C19.7869 1.82863 19.1902 1.63767 18.6626 1.92889C18.0897 2.24637 17.5264 2.57818 16.9487 2.88611C15.9676 3.40888 14.9364 3.81707 13.8718 4.12022C12.9074 4.39474 11.9215 4.60719 10.9357 4.77906C9.396 5.04641 7.83724 5.06789 6.28326 4.91273C5.45972 4.82918 4.64095 4.67641 3.82219 4.54273C3.22781 4.44486 2.74084 4.79576 2.69071 5.39492C2.65013 5.85085 2.6382 6.30678 2.61433 6.76271Z" fill="#264653"/>
<path d="M18.5002 22.1068C18.5169 20.0586 18.8607 18.0654 19.5362 16.1367C20.0542 14.6567 20.7608 13.2674 21.6464 11.9736C21.9877 11.4747 22.6084 11.4103 23.0834 11.7898C23.8759 12.4248 24.6613 13.0741 25.4944 13.6541C26.7571 14.5326 28.1368 15.1986 29.5834 15.7309C30.7387 16.1558 31.9227 16.4709 33.1354 16.6786C34.4674 16.9053 35.8113 16.9817 37.16 16.9387C37.7854 16.9196 38.2294 17.3111 38.1793 17.9294C38.1267 18.5739 38.0193 19.216 37.8976 19.8534C37.6541 21.1304 37.2459 22.3598 36.7136 23.5438C36.2051 24.6776 35.5869 25.747 34.8541 26.7544C34.1952 27.6591 33.4672 28.5017 32.6556 29.2704C31.6554 30.218 30.5573 31.0368 29.371 31.7386C28.6883 32.142 27.9817 32.4857 27.2011 32.6505C25.2867 33.0563 23.5202 32.6982 21.94 31.55C20.8921 30.7885 20.1473 29.7764 19.6914 28.5518C19.097 26.9621 18.7198 25.3245 18.5718 23.6345C18.5313 23.1236 18.5241 22.6152 18.5002 22.1068ZM26.1962 30.5904C26.2678 30.5832 26.3991 30.5689 26.5303 30.5594C27.6809 30.4782 28.6906 30.0462 29.5762 29.3181C29.8221 29.1152 29.9462 28.8335 29.8961 28.5184C29.7815 27.7808 28.9747 27.4729 28.3994 27.9503C27.5568 28.6497 26.5972 28.8908 25.5254 28.7189C24.7854 28.5996 24.1552 28.2487 23.6396 27.714C23.1335 27.1888 22.8447 26.5491 22.7063 25.8306C22.5845 25.198 21.8803 24.9211 21.3361 25.2696C20.9828 25.4964 20.8634 25.8712 20.9852 26.4011C21.2692 27.64 21.897 28.6617 22.8996 29.4518C23.8497 30.1989 24.9382 30.5451 26.1962 30.5904ZM22.976 17.2705C22.1906 17.2825 21.4148 17.5546 20.6987 18.0559C20.2714 18.3543 20.1425 18.9749 20.4552 19.3783C20.7847 19.8032 21.3456 19.8486 21.792 19.4977C22.2551 19.1325 22.7946 19.0083 23.3699 19.099C24.37 19.259 25.0193 19.9632 25.1602 21.0063C25.2318 21.5434 25.6471 21.9158 26.115 21.8633C26.6449 21.8036 26.9863 21.3787 26.9481 20.8249C26.824 18.8842 25.0575 17.2705 22.976 17.2705ZM31.2114 20.221C30.2518 20.2448 29.4211 20.5289 28.705 21.1137C28.5235 21.2617 28.3397 21.4336 28.2252 21.6341C27.996 22.0351 28.1416 22.5149 28.5331 22.7942C28.8553 23.0234 29.3375 22.9733 29.6479 22.6749C30.2733 22.0733 31.0133 21.8895 31.8296 22.1449C32.6007 22.386 33.0709 22.9351 33.2452 23.7324C33.3526 24.2217 33.8276 24.5344 34.2979 24.4365C34.8135 24.3267 35.1166 23.8541 35.0021 23.3337C34.8111 22.4696 34.391 21.7439 33.7083 21.1686C32.9754 20.5456 32.1256 20.252 31.2114 20.221Z" fill="white"/>
<path d="M26.1961 30.5904C24.9382 30.5451 23.8497 30.199 22.8996 29.4518C21.897 28.6617 21.2692 27.64 20.9852 26.4011C20.8634 25.8712 20.9804 25.4964 21.3361 25.2697C21.8803 24.9211 22.5821 25.198 22.7062 25.8306C22.8447 26.5491 23.1335 27.1889 23.6396 27.714C24.1552 28.2487 24.7854 28.5996 25.5254 28.719C26.5948 28.8908 27.5544 28.6498 28.3994 27.9503C28.9747 27.4729 29.7815 27.7809 29.8961 28.5185C29.9438 28.8336 29.8221 29.1176 29.5762 29.3181C28.6906 30.0462 27.6833 30.4782 26.5303 30.5594C26.399 30.5666 26.2678 30.5833 26.1961 30.5904Z" fill="#264653"/>
<path d="M22.976 17.2714C25.0575 17.2714 26.8239 18.8851 26.948 20.8257C26.9839 21.3819 26.6425 21.8068 26.115 21.8641C25.6471 21.9166 25.2317 21.5443 25.1601 21.0072C25.0193 19.964 24.37 19.2598 23.3698 19.0999C22.7945 19.0068 22.2551 19.1333 21.792 19.4985C21.3456 19.8494 20.7846 19.8041 20.4552 19.3792C20.1425 18.9781 20.2714 18.3551 20.6987 18.0567C21.4172 17.5555 22.193 17.2833 22.976 17.2714Z" fill="#264653"/>
<path d="M31.2114 20.221C32.1257 20.252 32.9755 20.548 33.7083 21.1663C34.3886 21.7416 34.8087 22.4672 35.0021 23.3313C35.119 23.8517 34.8159 24.3244 34.2979 24.4342C33.8276 24.5344 33.3526 24.2217 33.2452 23.73C33.0709 22.9327 32.6007 22.3837 31.8297 22.1426C31.0133 21.8872 30.2709 22.071 29.6479 22.6725C29.3376 22.9709 28.8554 23.021 28.5331 22.7919C28.144 22.5126 27.996 22.0328 28.2252 21.6318C28.3398 21.4312 28.5236 21.2594 28.705 21.1114C29.4211 20.5289 30.2518 20.2425 31.2114 20.221Z" fill="#264653"/>
<path d="M7.74412 12.2888C6.79168 12.2673 5.93711 11.9832 5.22099 11.3387C5.03241 11.1692 4.84144 10.9854 4.71254 10.7706C4.48099 10.3839 4.59557 9.90407 4.93215 9.66536C5.33079 9.37891 5.81059 9.39562 6.12807 9.73936C6.56252 10.212 7.08768 10.477 7.72741 10.4889C8.69179 10.5056 9.51294 9.88975 9.78029 8.96118C9.89249 8.57208 10.124 8.30951 10.5346 8.24028C10.8831 8.1806 11.1672 8.30712 11.3844 8.57686C11.5658 8.80363 11.6136 9.06382 11.5467 9.34311C11.1338 11.0403 9.52965 12.315 7.74412 12.2888Z" fill="#264653"/>
<path d="M12.8262 8.59118C12.8716 8.18776 13.1055 7.84403 13.4445 7.72945C13.867 7.58622 14.2465 7.69364 14.5258 8.09944C15.0724 8.89672 16.2302 9.22853 17.1564 8.77976C17.6576 8.53866 17.999 8.15196 18.221 7.64829C18.4406 7.15177 18.9156 6.94887 19.3859 7.14223C19.8681 7.34035 20.0853 7.83448 19.8705 8.33576C19.2307 9.82291 18.0849 10.6441 16.4808 10.7706C15.3875 10.8565 14.4184 10.5032 13.6163 9.74652C13.411 9.55317 13.2177 9.34072 13.053 9.11156C12.9456 8.96356 12.9002 8.76782 12.8262 8.59118Z" fill="#264653"/>
</svg>
