<svg width="32" height="37" viewBox="0 0 32 37" fill="none" xmlns="http://www.w3.org/2000/svg">
<g clip-path="url(#clip0)">
<path d="M18.9564 15.1874C19.0215 15.0366 19.043 14.9749 19.072 14.9155C22.0361 9.16215 22.3539 8.62752 25.3292 2.88034C26.0133 1.55717 27.3156 0.915466 28.6666 1.1553C30.9171 1.55561 31.957 3.81456 30.8643 5.93967C28.4256 10.6798 25.9831 15.4179 23.5424 20.1579C21.0523 24.9926 18.5622 29.8273 16.0722 34.662C15.6866 35.4118 15.102 35.888 14.2288 35.8727C13.3689 35.8579 12.7089 35.4533 12.3164 34.6789C11.9694 33.9954 12.1071 33.3263 12.4431 32.673C14.2466 29.1765 18.6851 20.4552 20.4868 16.9568C20.6103 16.7193 20.7321 16.4798 20.8866 16.181C20.2463 15.8512 19.6172 15.5257 18.9564 15.1874Z" fill="#264653"/>
<path d="M11.6366 11.0078C12.0088 10.7617 12.3206 10.5566 12.689 10.3122C12.5962 10.1738 12.5125 10.0433 12.4268 9.91464C10.998 7.75332 9.57124 5.59018 8.14443 3.42704C8.04994 3.28285 7.94623 3.1326 7.89991 2.96956C7.80892 2.64924 7.93549 2.38532 8.21014 2.20715C8.48479 2.02897 8.77296 2.02764 9.03146 2.23928C9.14328 2.3311 9.23296 2.45424 9.31317 2.57698C11.402 5.73426 13.4908 8.89344 15.5738 12.0543C16.2711 13.1124 16.1029 14.6105 15.159 15.4339C14.8797 15.6782 14.8793 15.8241 15.0702 16.1126C18.7844 21.7199 22.4907 27.3325 26.1933 32.9469C26.3324 33.1574 26.4653 33.3809 26.5579 33.616C26.9454 34.6044 26.5845 35.5827 25.6479 36.1372C24.8123 36.6315 23.7528 36.4473 23.0964 35.6827C22.9481 35.5098 22.8195 35.3206 22.6947 35.1297C19.0167 29.5637 15.3369 23.9957 11.6686 18.4245C11.4653 18.1165 11.3327 18.022 10.9534 18.211C9.76108 18.806 8.37451 18.3714 7.6074 17.2137C6.19803 15.0873 4.79449 12.9573 3.38898 10.8292C2.7166 9.80996 2.04224 8.79256 1.36993 7.77146C1.05783 7.29791 1.1137 6.86426 1.50873 6.61715C1.89785 6.37548 2.27775 6.49357 2.58992 6.96522C4.03487 9.14807 5.47587 11.3345 6.91892 13.5173C7.00639 13.6479 7.09189 13.7804 7.19182 13.9305C7.55231 13.6933 7.87001 13.4828 8.23641 13.2402C8.14193 13.096 8.05446 12.9654 7.96888 12.8348C6.55627 10.695 5.14178 8.55513 3.72917 6.41533C3.66323 6.31403 3.59146 6.21628 3.53136 6.11143C3.32801 5.75802 3.41181 5.38239 3.73959 5.15713C4.06146 4.93732 4.45136 4.99707 4.69909 5.33147C4.91448 5.62282 5.10449 5.93208 5.30427 6.23416C6.585 8.17137 7.86376 10.1104 9.14449 12.0476C9.23196 12.1782 9.31746 12.3107 9.41558 12.4588C9.78002 12.218 10.1016 12.0057 10.4796 11.756C10.394 11.6274 10.3102 11.4988 10.2246 11.3702C8.7887 9.19716 7.35283 7.02417 5.92082 4.84944C5.83343 4.71692 5.74257 4.57668 5.6957 4.42689C5.58854 4.08505 5.72117 3.8119 6.022 3.64239C6.31116 3.47998 6.5973 3.52785 6.832 3.76504C6.93389 3.86783 7.00992 3.99987 7.09203 4.12269C8.51371 6.27235 9.93341 8.42382 11.355 10.5754C11.4404 10.7097 11.5278 10.8422 11.6366 11.0078Z" fill="#264653"/>
</g>
<defs>
<clipPath id="clip0">
<rect width="29.9861" height="35.4235" fill="white" transform="translate(1.46627) rotate(2.37231)"/>
</clipPath>
</defs>
</svg>
