<svg width="35" height="37" viewBox="0 0 35 37" fill="none" xmlns="http://www.w3.org/2000/svg">
<path d="M29.4714 12.9178C29.4714 12.9178 33.41 26.3703 33.9697 28.2709C34.5294 30.1715 33.1672 30.3237 32.2659 30.5618C31.3646 30.7999 10.7622 36.2246 8.86087 36.728C6.95538 37.2314 6.36685 35.5923 6.16108 34.8781C5.9553 34.1639 1.82743 20.0987 1.82743 20.0987L29.4714 12.9178ZM14.3098 23.2599C14.5197 23.9741 15.882 28.63 15.9807 28.9617C16.0795 29.2934 16.4087 29.871 17.3882 29.1529C18.3636 28.4348 21.298 25.3595 21.6807 25.0005C22.0635 24.6454 22.0594 24.0834 20.8905 23.7751C19.7217 23.4706 15.6021 22.2998 15.1288 22.1711C14.6514 22.0462 14.03 22.3116 14.3098 23.2599Z" fill="#073B4C"/>
<path d="M21.4378 6.89214L14.3632 11.1187L12.9228 7.22777L19.9974 3.00119L21.4378 6.89214Z" fill="#073B4C"/>
<path d="M13.5401 11.6104L6.46555 15.8331L5.02512 11.9422L12.0997 7.71557L13.5401 11.6104Z" fill="#073B4C"/>
<path d="M5.64241 16.3249L1.44046 18.8343L2.28882e-05 14.9433L4.20197 12.43L5.64241 16.3249Z" fill="#073B4C"/>
<path d="M26.4629 3.89096L22.2568 6.40428L20.8164 2.50942L25.0225 7.62939e-06L26.4629 3.89096Z" fill="#073B4C"/>
</svg>
