<svg width="30" height="38" viewBox="0 0 30 38" fill="none" xmlns="http://www.w3.org/2000/svg">
<path d="M19.6697 13.0219C20.5573 13.5092 21.5854 13.7868 22.6774 13.7868C26.0492 13.7868 28.7792 11.1469 28.7792 7.89338C28.7792 4.63984 26.0492 2 22.6774 2C19.3057 2 16.5533 4.30369 16.5533 7.56032" stroke="#264653" stroke-width="2.19075" stroke-miterlimit="10" stroke-linecap="round"/>
<path d="M3.97942 7.72067C3.97942 7.72067 17.2845 7.72067 19.6217 7.72067C21.9589 7.72067 22.5816 7.56956 21.8632 9.13002C20.6211 11.8285 12.2492 25.2589 12.2492 25.2589C12.2492 25.2589 3.079 10.3266 2.36059 9.10843C1.64217 7.89028 1.90719 7.72067 3.97942 7.72067Z" stroke="#264653" stroke-width="2.19075" stroke-miterlimit="10"/>
<path d="M12.2843 23.9051V36.3696" stroke="#264653" stroke-width="2.19075" stroke-miterlimit="10" stroke-linecap="round"/>
<path d="M5.23742 36.3696H18.7213" stroke="#264653" stroke-width="2.19075" stroke-miterlimit="10" stroke-linecap="round"/>
<path d="M6.31672 16.2292H18.3637L12.2492 25.2589L6.31672 16.2292Z" fill="#264653"/>
</svg>
